<?xml version="1.0" encoding="utf-8"?>
<!-- Generator: Adobe Illustrator 16.0.0, SVG Export Plug-In . SVG Version: 6.00 Build 0)  -->
<!DOCTYPE svg PUBLIC "-//W3C//DTD SVG 1.1//EN" "http://www.w3.org/Graphics/SVG/1.1/DTD/svg11.dtd">
<svg version="1.1" id="Ebene_1" xmlns="http://www.w3.org/2000/svg" xmlns:xlink="http://www.w3.org/1999/xlink" x="0px" y="0px"
	 width="41px" height="30px" viewBox="0 0 41 30" enable-background="new 0 0 41 30" xml:space="preserve">
<g id="Form_2">
	<g>
		
			<rect x="7.394" y="18.373" transform="matrix(0.4856 -0.8742 0.8742 0.4856 -10.0481 20.6712)" fill="#FFFFFF" width="10.296" height="1.001"/>
	</g>
</g>
<g id="Form_3">
	<g>
		
			<rect x="16.104" y="13.715" transform="matrix(0.9487 -0.3162 0.3162 0.9487 -4.9851 6.198)" fill="#FFFFFF" width="1.001" height="9.487"/>
	</g>
</g>
<g id="Form_4">
	<g>
		
			<rect x="13.64" y="16.318" transform="matrix(0.359 -0.9333 0.9333 0.359 -2.4904 30.011)" fill="#FFFFFF" width="13.928" height="1"/>
	</g>
</g>
<g id="Form_5">
	<g>
		
			<rect x="24.645" y="9.788" transform="matrix(0.9703 -0.2421 0.2421 0.9703 -3.6178 6.6235)" fill="#FFFFFF" width="1" height="16.492"/>
	</g>
</g>
<g id="Form_6">
	<g>
		
			<rect x="19.246" y="15.306" transform="matrix(0.2747 -0.9615 0.9615 0.2747 6.6812 40.4689)" fill="#FFFFFF" width="21.84" height="1"/>
	</g>
</g>
<g id="Form_7">
	<g>
		
			<rect x="34.166" y="4.871" transform="matrix(0.9703 -0.2421 0.2421 0.9703 -1.6453 8.7207)" fill="#FFFFFF" width="1" height="12.369"/>
	</g>
</g>
<g id="Form_8">
	<g>
		<rect x="35.708" y="16.139" fill="#FFFFFF" width="4" height="1"/>
	</g>
</g>
</svg>
