<?xml version="1.0" encoding="utf-8"?>
<!-- Generator: Adobe Illustrator 16.0.0, SVG Export Plug-In . SVG Version: 6.00 Build 0)  -->
<!DOCTYPE svg PUBLIC "-//W3C//DTD SVG 1.1//EN" "http://www.w3.org/Graphics/SVG/1.1/DTD/svg11.dtd">
<svg version="1.1" id="Ebene_1" xmlns="http://www.w3.org/2000/svg" xmlns:xlink="http://www.w3.org/1999/xlink" x="0px" y="0px"
	 width="41px" height="30px" viewBox="0 0 41 30" enable-background="new 0 0 41 30" xml:space="preserve">
<g id="Form_2">
	<g>
		
			<rect x="7.393" y="18.371" transform="matrix(-0.4856 0.8742 -0.8742 -0.4856 35.1291 17.073)" fill="#111111" width="10.296" height="1.001"/>
	</g>
</g>
<g id="Form_3">
	<g>
		
			<rect x="16.104" y="13.716" transform="matrix(-0.9487 0.3161 -0.3161 -0.9487 38.1918 30.7233)" fill="#111111" width="1.001" height="9.487"/>
	</g>
</g>
<g id="Form_4">
	<g>
		
			<rect x="13.639" y="16.319" transform="matrix(-0.3591 0.9333 -0.9333 -0.3591 43.6976 3.6296)" fill="#111111" width="13.927" height="0.999"/>
	</g>
</g>
<g id="Form_5">
	<g>
		
			<rect x="24.647" y="9.788" transform="matrix(-0.9702 0.2423 -0.2423 -0.9702 53.9134 29.4378)" fill="#111111" width="1" height="16.493"/>
	</g>
</g>
<g id="Form_6">
	<g>
		
			<rect x="19.246" y="15.306" transform="matrix(-0.2747 0.9615 -0.9615 -0.2747 53.6492 -8.8569)" fill="#111111" width="21.839" height="1"/>
	</g>
</g>
<g id="Form_7">
	<g>
		
			<rect x="34.168" y="4.871" transform="matrix(-0.9704 0.2416 -0.2416 -0.9704 70.98 13.4069)" fill="#111111" width="1" height="12.37"/>
	</g>
</g>
<g id="Form_8">
	<g>
		<rect x="35.708" y="16.139" fill="#111111" width="4" height="1"/>
	</g>
</g>
</svg>
