<?xml version="1.0" encoding="utf-8"?>
<!-- Generator: Adobe Illustrator 16.0.0, SVG Export Plug-In . SVG Version: 6.00 Build 0)  -->
<!DOCTYPE svg PUBLIC "-//W3C//DTD SVG 1.1//EN" "http://www.w3.org/Graphics/SVG/1.1/DTD/svg11.dtd">
<svg version="1.1" id="Ebene_1" xmlns="http://www.w3.org/2000/svg" xmlns:xlink="http://www.w3.org/1999/xlink" x="0px" y="0px"
	 width="41px" height="30px" viewBox="0 0 41 30" enable-background="new 0 0 41 30" xml:space="preserve">
<g id="Abgerundetes_Rechteck_9">
	<g>
		<path fill="#FFFFFF" d="M13.816,23.098l-4.648-9.969c-0.35-0.751-1.242-1.076-1.994-0.726c-0.75,0.35-1.075,1.242-0.725,1.993
			l4.648,9.969c0.35,0.75,1.242,1.076,1.994,0.725C13.842,24.74,14.167,23.848,13.816,23.098z"/>
	</g>
</g>
<g id="Abgerundetes_Rechteck_10">
	<g>
		<path fill="#FFFFFF" d="M18.805,6.347c-0.778-0.284-1.639,0.117-1.922,0.896l-5.814,15.973c-0.283,0.779,0.117,1.639,0.896,1.922
			c0.778,0.285,1.639-0.117,1.922-0.896l5.814-15.973C19.985,7.491,19.584,6.63,18.805,6.347z"/>
	</g>
</g>
<g id="Abgerundetes_Rechteck_11">
	<g>
		<path fill="#FFFFFF" d="M25.198,27.652L19.764,7.368c-0.215-0.801-1.037-1.275-1.837-1.061c-0.801,0.214-1.275,1.036-1.061,1.837
			l5.435,20.283c0.215,0.801,1.037,1.275,1.837,1.061C24.938,29.275,25.413,28.453,25.198,27.652z"/>
	</g>
</g>
<g id="Abgerundetes_Rechteck_12">
	<g>
		<path fill="#FFFFFF" d="M31.158,0.511c-0.801-0.214-1.623,0.261-1.838,1.062L22.332,27.65c-0.214,0.801,0.261,1.623,1.061,1.838
			c0.801,0.215,1.623-0.26,1.838-1.061l6.988-26.079C32.433,1.548,31.958,0.726,31.158,0.511z"/>
	</g>
</g>
<g id="Abgerundetes_Rechteck_13">
	<g>
		<path fill="#FFFFFF" d="M36.161,16.061L32.279,1.572c-0.215-0.8-1.037-1.275-1.837-1.061c-0.801,0.215-1.275,1.037-1.062,1.837
			l3.883,14.488c0.215,0.801,1.037,1.275,1.837,1.061S36.376,16.859,36.161,16.061z"/>
	</g>
</g>
<g id="Abgerundetes_Rechteck_14">
	<g>
		<path fill="#FFFFFF" d="M37.864,15h-3c-0.828,0-1.5,0.672-1.5,1.5c0,0.828,0.672,1.5,1.5,1.5h3c0.828,0,1.5-0.672,1.5-1.5
			C39.364,15.672,38.692,15,37.864,15z"/>
	</g>
</g>
<g id="Abgerundetes_Rechteck_9_1_">
	<g>
		<path fill="#FFFFFF" d="M8.42,12.403c-0.752-0.351-1.645-0.025-1.994,0.726l-4.648,9.969c-0.351,0.75-0.025,1.643,0.725,1.992
			c0.752,0.352,1.645,0.025,1.994-0.725l4.648-9.969C9.495,13.646,9.17,12.753,8.42,12.403z"/>
	</g>
</g>
</svg>
