<svg version="1.1" xmlns="http://www.w3.org/2000/svg" xmlns:xlink="http://www.w3.org/1999/xlink" x="0px" y="0px"
	 width="1000px" height="150px" viewBox="0 0 1000 150" enable-background="new 0 0 1000 150" xml:space="preserve">
<rect display="none" fill="#E05AC7" width="1000" height="150"/>
<g>
	<g id="color_x5F_bg">
		<path fill="#FFFFFF" d="M105.939,150L105.939,150c-41.25,0-75-33.75-75-75l0,0c0-41.25,33.75-75,75-75l0,0c41.25,0,75,33.75,75,75
			l0,0C180.939,116.25,147.189,150,105.939,150z"/>
	</g>
	<path fill="#2A5083" d="M145.939,79.375H66.563V46.25c0-8.125,6.25-14.375,14.375-14.375h51.875c8.125,0,14.375,6.25,14.375,14.375
		L145.939,79.375L145.939,79.375z"/>
	<circle fill="#FFE1A4" cx="142.189" cy="81.25" r="8.125"/>
	<circle fill="#FFE1A4" cx="69.689" cy="81.25" r="8.125"/>
	<path fill="#F4C37D" d="M105.939,128.125L105.939,128.125c-20,0-36.25-16.25-36.25-36.25v-32.5h58.75
		c8.125,0,14.375,6.25,14.375,14.375v19.375C142.189,111.875,125.939,128.125,105.939,128.125z"/>
	<circle fill="#2A5083" cx="87.813" cy="85.625" r="4.375"/>
	<circle fill="#2A5083" cx="124.063" cy="85.625" r="4.375"/>
	<path fill="#2A5083" d="M105.939,120.625c5,0,9.375-3.125,10.625-7.5c0.625-1.875-0.625-3.75-3.125-3.75H97.813
		c-1.875,0-3.125,1.875-3.125,3.75C96.563,116.875,100.939,120.625,105.939,120.625z"/>
	<path fill="#FFE1A4" d="M107.813,78.125c-2.5,0-4.375,1.875-4.375,4.375v10h-1.25c-2.5,0-4.375,1.875-4.375,4.375l0,0
		c0,2.5,1.875,4.375,4.375,4.375h5c3.125,0,4.375-1.875,4.375-4.375V82.5C112.189,80,110.313,78.125,107.813,78.125z"/>
	<path fill="#2A5083" d="M90.313,75.625h-5.625c-1.25,0-2.5-0.625-2.5-2.5l0,0c0-1.25,0.625-2.5,2.5-2.5h5c1.25,0,2.5,0.625,2.5,2.5
		l0,0C92.813,74.375,91.563,75.625,90.313,75.625z"/>
	<path fill="#2A5083" d="M127.189,75.625h-5c-1.25,0-2.5-0.625-2.5-2.5l0,0c0-1.25,0.625-2.5,2.5-2.5h5c1.25,0,2.5,0.625,2.5,2.5
		l0,0C129.063,74.375,128.439,75.625,127.189,75.625z"/>
	<path fill="#2A5083" d="M129.063,43.125h-20l0,0c0-11.25,8.75-20,20-20l0,0V43.125z"/>
	<path fill="#2A5083" d="M68.439,46.25h21.875l0,0c0,11.875-9.375,21.875-21.875,21.875l0,0V46.25z"/>
	<path fill="#2A5083" d="M85.939,48.125h16.875l0,0C102.813,57.5,95.313,65,85.939,65l0,0V48.125L85.939,48.125z"/>
	<g id="Layer_2">
	</g>
</g>
<g display="none" enable-background="new    ">
	<path display="inline" fill="#FFFFFF" d="M216.354,59.375h-5.2V29.373h-9.901v-5h25.001v5h-9.9V59.375z"/>
	<path display="inline" fill="#FFFFFF" d="M232.252,33.823h5.201v3.101c1.2-2.601,3.15-3.7,5.7-3.7c1.7,0,3.15,0.55,4.3,1.55
		l-0.75,4.801c-0.95-0.65-2.2-1.251-4.05-1.251c-2.3,0-5.2,1.45-5.2,6.701v14.351h-5.201V33.823z"/>
	<path display="inline" fill="#FFFFFF" d="M251.202,46.624c0-8.4,4.5-13.4,11.651-13.4s11.701,5,11.701,13.4
		s-4.55,13.351-11.701,13.351S251.202,55.024,251.202,46.624z M269.353,46.624c0-5.25-2.5-8.5-6.5-8.5c-3.95,0-6.45,3.25-6.45,8.5
		c0,5.251,2.5,8.451,6.45,8.451C266.853,55.075,269.353,51.875,269.353,46.624z"/>
	<path display="inline" fill="#FFFFFF" d="M287.852,58.925l-9.551-25.102h5.15l6.3,16.701c0.35,0.95,0.5,1.45,0.7,2.25
		c0.2-0.8,0.35-1.3,0.7-2.25l6.35-16.701h5.2l-13.5,35.252h-5.3L287.852,58.925z"/>
	<path display="inline" fill="#FFFFFF" d="M319.951,24.373h14.75c8.601,0,11.301,5.101,11.301,10.351c0,4.05-2.25,8.5-7.601,9.9
		l7.201,14.751h-5.95l-6.9-14.301h-7.601v14.301h-5.2V24.373L319.951,24.373z M334.802,40.074c4.351,0,5.8-2.65,5.8-5.351
		c0-2.45-1.2-5.351-5.8-5.351h-9.65v10.701L334.802,40.074L334.802,40.074z"/>
	<path display="inline" fill="#FFFFFF" d="M351.75,46.574c0-8.4,4.601-13.351,11.601-13.351c6.05,0,11,3.8,11,11.95
		c0,1.101-0.05,2.45-0.2,3.351H356.95c0.1,4.2,3.15,6.851,6.45,6.851c2.1,0,4-0.9,5.3-2.601l3.4,3.5c-1.85,2.2-4.75,3.7-8.75,3.7
		C356.251,59.975,351.75,54.975,351.75,46.574z M369.152,44.324c-0.1-4.75-3.05-6.501-5.8-6.501c-3.25,0-6.15,1.751-6.4,6.501
		H369.152z"/>
	<path display="inline" fill="#FFFFFF" d="M387.401,58.925l-9.551-25.102H383l6.3,16.701c0.35,0.95,0.5,1.45,0.7,2.25
		c0.2-0.8,0.35-1.3,0.7-2.25l6.35-16.701h5.2l-13.5,35.252h-5.3L387.401,58.925z"/>
	<path display="inline" fill="#FFFFFF" d="M423.051,44.124c0-4.3-2.2-6-5.101-6c-3.1,0-5.5,1.5-5.5,5.9v15.351h-5.201V33.823h5.201
		v2.45c1.65-2.1,3.8-3.05,6.6-3.05c5.353,0,9.201,2.9,9.201,10.9v15.251h-5.2V44.124L423.051,44.124z"/>
	<path display="inline" fill="#FFFFFF" d="M434.25,46.624c0-8.4,4.5-13.4,11.651-13.4c7.149,0,11.699,5,11.699,13.4
		s-4.55,13.351-11.699,13.351C438.75,59.975,434.25,55.024,434.25,46.624z M452.401,46.624c0-5.25-2.5-8.5-6.5-8.5
		c-3.95,0-6.45,3.25-6.45,8.5c0,5.251,2.5,8.451,6.45,8.451C449.9,55.075,452.401,51.875,452.401,46.624z"/>
	<path display="inline" fill="#FFFFFF" d="M464.099,25.723l5.2-2.45v36.103h-5.2V25.723z"/>
	<path display="inline" fill="#FFFFFF" d="M475.798,46.574c0-8.4,4.353-13.351,10.603-13.351c2.8,0,4.75,1.05,6.051,2.4v-9.951
		l5.2-2.4v36.103h-5.2v-1.8c-1.352,1.5-3.2,2.399-6.051,2.399C479.949,59.975,475.798,54.975,475.798,46.574z M492.45,52.175V40.924
		c-0.8-1.3-2.65-2.8-5.3-2.8c-3.9,0-6.15,3-6.15,8.45c0,4.95,2.3,8.501,6.15,8.501C489.449,55.075,491.299,54.024,492.45,52.175z"/>
	<path display="inline" fill="#FFFFFF" d="M503.398,55.825l3.697-3.15c1.053,1,3.001,2.6,5.854,2.6c2.6,0,4.5-0.7,4.5-2.75
		c0-2.05-2.451-2.95-5.301-4.05c-5.4-1.801-8.15-4.101-8.15-8.201c0-4.55,3.95-7.05,8.9-7.05c4.398,0,7.301,1.85,8.949,3.85
		l-3.75,3.001c-0.898-0.95-2.501-2.15-5.199-2.15c-2.199,0-3.602,0.85-3.602,2.35c0,1.7,2.25,2.551,4.949,3.601
		c5.501,1.851,8.4,4.05,8.4,8.65c0,4.9-3.801,7.45-9.602,7.45C509.049,59.975,505.198,58.375,503.398,55.825z"/>
</g>
<g enable-background="new    ">
	<path fill="#FFFFFF" d="M202.252,41.874c0-8.551,4.8-18.102,15.251-18.102c6.701,0,9.801,3.2,11.951,6.65l-4.7,2.7
		c-1.6-2.3-3.65-4.25-7.25-4.25c-7.6,0-9.851,7.2-9.851,13.001c0,6.7,2.9,13.001,9.851,13.001c4.4,0,7.4-3.25,7.4-7.4v-0.7h-6.3
		v-4.9h11.651v4.55c0,8.801-5.55,13.551-12.751,13.551C206.703,59.975,202.252,51.024,202.252,41.874z"/>
	<path fill="#FFFFFF" d="M251.853,57.175c-1.3,1.351-3.6,2.8-7,2.8c-5.2,0-9.101-2.899-9.101-8.55c0-5.9,4.8-8.451,9.801-8.451
		c2.35,0,4.6,0.5,6.3,1.5v-1.399c0-3.851-1.7-5.251-5.45-5.251c-3.2,0-5.4,0.9-7.301,2.301l-1.55-4.25
		c2.1-1.45,5.35-2.65,9.551-2.65c4.35,0,9.75,1.1,9.75,9.601v16.551h-5V57.175z M251.853,52.625v-3.9c-1.4-0.75-3.45-1.25-5.45-1.25
		c-3.1,0-5.65,1.149-5.65,3.95c0,2.399,1.75,3.95,5.05,3.95C248.453,55.375,250.503,54.125,251.853,52.625z"/>
	<path fill="#FFFFFF" d="M263.852,33.823h5.201v3.101c1.2-2.601,3.15-3.7,5.7-3.7c1.7,0,3.15,0.55,4.3,1.55l-0.75,4.801
		c-0.95-0.65-2.2-1.251-4.05-1.251c-2.3,0-5.2,1.45-5.2,6.701v14.351h-5.201V33.823z"/>
	<path fill="#FFFFFF" d="M291.102,58.925l-9.551-25.102h5.15l6.3,16.701c0.35,0.95,0.5,1.45,0.7,2.25c0.2-0.8,0.35-1.3,0.7-2.25
		l6.35-16.701h5.2l-13.5,35.252h-5.3L291.102,58.925z"/>
	<path fill="#FFFFFF" d="M323.201,24.373h14.75c8.601,0,11.301,5.101,11.301,10.351c0,4.05-2.25,8.5-7.601,9.9l7.201,14.751h-5.95
		l-6.9-14.301h-7.601v14.301h-5.2V24.373L323.201,24.373z M338.052,40.074c4.351,0,5.8-2.65,5.8-5.351c0-2.45-1.2-5.351-5.8-5.351
		h-9.65v10.701L338.052,40.074L338.052,40.074z"/>
	<path fill="#FFFFFF" d="M355,46.574c0-8.4,4.601-13.351,11.601-13.351c6.05,0,11,3.8,11,11.95c0,1.101-0.05,2.45-0.2,3.351H360.2
		c0.1,4.2,3.15,6.851,6.45,6.851c2.1,0,4-0.9,5.3-2.601l3.4,3.5c-1.85,2.2-4.75,3.7-8.75,3.7C359.501,59.975,355,54.975,355,46.574z
		 M372.402,44.324c-0.1-4.75-3.05-6.501-5.8-6.501c-3.25,0-6.15,1.751-6.4,6.501H372.402z"/>
	<path fill="#FFFFFF" d="M390.651,58.925L381.1,33.823h5.15l6.3,16.701c0.35,0.95,0.5,1.45,0.7,2.25c0.2-0.8,0.35-1.3,0.7-2.25
		l6.35-16.701h5.2L392,69.075h-5.3L390.651,58.925z"/>
	<path fill="#FFFFFF" d="M409.25,46.574c0-8.4,4.601-13.351,11.601-13.351c6.05,0,11,3.8,11,11.95c0,1.101-0.05,2.45-0.198,3.351
		H414.45c0.1,4.2,3.15,6.851,6.45,6.851c2.1,0,4-0.9,5.3-2.601l3.398,3.5c-1.85,2.2-4.75,3.7-8.75,3.7
		C413.75,59.975,409.25,54.975,409.25,46.574z M426.651,44.324c-0.102-4.75-3.052-6.501-5.8-6.501c-3.25,0-6.15,1.751-6.4,6.501
		H426.651z"/>
	<path fill="#FFFFFF" d="M436.1,55.825l3.7-3.15c1.05,1,3,2.6,5.853,2.6c2.6,0,4.5-0.7,4.5-2.75c0-2.05-2.45-2.95-5.301-4.05
		c-5.399-1.801-8.149-4.101-8.149-8.201c0-4.55,3.95-7.05,8.899-7.05c4.399,0,7.302,1.85,8.95,3.85l-3.75,3.001
		c-0.898-0.95-2.5-2.15-5.2-2.15c-2.199,0-3.601,0.85-3.601,2.35c0,1.7,2.25,2.551,4.95,3.601c5.5,1.851,8.399,4.05,8.399,8.65
		c0,4.9-3.8,7.45-9.601,7.45C441.75,59.975,437.9,58.375,436.1,55.825z"/>
</g>
<g display="none" enable-background="new    ">
	<path display="inline" fill="#FFFFFF" d="M223.504,51.324h-14.151l-2.85,8.051h-5.4l12.651-35.002h5.35l12.601,35.002h-5.4
		L223.504,51.324z M217.654,34.823c-0.4-1.1-0.95-2.75-1.2-3.95c-0.3,1.2-0.8,2.801-1.2,3.95l-4.3,11.901h10.951L217.654,34.823z"/>
	<path display="inline" fill="#FFFFFF" d="M237.802,25.723l5.201-2.45v36.103h-5.201V25.723z"/>
	<path display="inline" fill="#FFFFFF" d="M250.252,26.673c0-1.75,1.4-3.15,3.15-3.15s3.15,1.4,3.15,3.15s-1.4,3.15-3.15,3.15
		S250.252,28.423,250.252,26.673z M250.802,33.823h5.2v25.552h-5.2V33.823z"/>
	<path display="inline" fill="#FFFFFF" d="M262.302,46.624c0-8.4,4.3-13.4,11.151-13.4c4.7,0,8.15,2.05,9.65,6.601l-4.95,1.699
		c-0.75-1.949-2.3-3.3-4.5-3.3c-3.9,0-6.051,3.2-6.051,8.4s2.15,8.351,5.851,8.351c2.35,0,4.1-1.35,4.8-3.75l4.95,1.55
		c-1.35,4.75-4.7,7.2-9.75,7.2C266.602,59.975,262.302,55.024,262.302,46.624z"/>
	<path display="inline" fill="#FFFFFF" d="M288.951,26.673c0-1.75,1.4-3.15,3.15-3.15s3.15,1.4,3.15,3.15s-1.4,3.15-3.15,3.15
		S288.951,28.423,288.951,26.673z M289.501,33.823h5.2v25.552h-5.2V33.823z"/>
	<path display="inline" fill="#FFFFFF" d="M316.852,57.175c-1.3,1.351-3.6,2.8-7,2.8c-5.2,0-9.101-2.899-9.101-8.55
		c0-5.9,4.8-8.451,9.801-8.451c2.35,0,4.6,0.5,6.3,1.5v-1.399c0-3.851-1.7-5.251-5.45-5.251c-3.2,0-5.4,0.9-7.301,2.301l-1.55-4.25
		c2.1-1.45,5.35-2.65,9.551-2.65c4.35,0,9.75,1.1,9.75,9.601v16.551h-5V57.175L316.852,57.175z M316.852,52.625v-3.9
		c-1.4-0.75-3.45-1.25-5.45-1.25c-3.1,0-5.65,1.149-5.65,3.95c0,2.399,1.75,3.95,5.05,3.95
		C313.452,55.375,315.502,54.125,316.852,52.625z"/>
	<path display="inline" fill="#FFFFFF" d="M341.102,24.373h21.701v4.9h-16.501v9.601h10.65v4.9h-10.65v10.7h17.601v4.9h-22.801
		V24.373z"/>
	<path display="inline" fill="#FFFFFF" d="M370.651,25.723l5.201-2.45v36.103h-5.201V25.723z"/>
	<path display="inline" fill="#FFFFFF" d="M383.851,25.723l5.2-2.45v36.103h-5.2V25.723z"/>
	<path display="inline" fill="#FFFFFF" d="M396.3,26.673c0-1.75,1.4-3.15,3.15-3.15s3.15,1.4,3.15,3.15s-1.4,3.15-3.15,3.15
		S396.3,28.423,396.3,26.673z M396.85,33.823h5.2v25.552h-5.2V33.823z"/>
	<path display="inline" fill="#FFFFFF" d="M408.35,46.624c0-8.4,4.5-13.4,11.651-13.4c7.151,0,11.701,5,11.701,13.4
		S427.151,59.975,420,59.975C412.849,59.975,408.35,55.024,408.35,46.624z M426.501,46.624c0-5.25-2.5-8.5-6.5-8.5
		c-3.95,0-6.45,3.25-6.45,8.5c0,5.251,2.5,8.451,6.45,8.451C424,55.075,426.501,51.875,426.501,46.624z"/>
	<path display="inline" fill="#FFFFFF" d="M439.649,53.625V38.323h-3.95v-4.5h3.95v-8.05l5.199-2.501v10.551h6.052v4.5h-6.052
		v13.951c0,1.7,0.5,2.9,2.5,2.9c1.25,0,2.5-0.4,3.802-1.2l-0.65,4.851c-1.4,0.7-3.1,1.149-5.15,1.149
		C441.3,59.975,439.649,57.475,439.649,53.625z"/>
	<path display="inline" fill="#FFFFFF" d="M457.099,53.625V38.323h-3.948v-4.5h3.948v-8.05l5.201-2.501v10.551h6.05v4.5h-6.05
		v13.951c0,1.7,0.5,2.9,2.5,2.9c1.25,0,2.5-0.4,3.8-1.2l-0.648,4.851c-1.4,0.7-3.102,1.149-5.15,1.149
		C458.75,59.975,457.099,57.475,457.099,53.625z"/>
</g>
<g display="none" enable-background="new    ">
	<path display="inline" fill="#FFFFFF" d="M216.753,24.373c8.351,0,11.051,4.6,11.051,9.351c0,2.9-1.6,5.7-4.8,7.25
		c4.35,1.551,6.05,4.9,6.05,8.15c0,4.751-3,10.251-11.551,10.251h-14V24.373H216.753z M222.504,33.974
		c0-2.25-0.95-4.801-5.601-4.801h-8.2v9.651h7.2C220.304,38.824,222.504,36.823,222.504,33.974z M223.754,49.374
		c0-2.95-1.45-5.75-7.351-5.75h-7.7v10.95h9.201C222.504,54.574,223.754,51.824,223.754,49.374z"/>
	<path display="inline" fill="#FFFFFF" d="M234.802,46.574c0-8.4,4.601-13.351,11.601-13.351c6.05,0,11,3.8,11,11.95
		c0,1.101-0.05,2.45-0.2,3.351h-17.201c0.1,4.2,3.15,6.851,6.45,6.851c2.1,0,4-0.9,5.3-2.601l3.4,3.5c-1.85,2.2-4.75,3.7-8.75,3.7
		C239.302,59.975,234.802,54.975,234.802,46.574z M252.203,44.324c-0.1-4.75-3.05-6.501-5.8-6.501c-3.25,0-6.15,1.751-6.4,6.501
		H252.203z"/>
	<path display="inline" fill="#FFFFFF" d="M260.901,33.823h5.2l5.9,16.751c0.3,0.9,0.5,1.45,0.7,2.25c0.2-0.8,0.4-1.35,0.7-2.25
		l5.85-16.751h5.2l-9.35,25.552h-4.851L260.901,33.823z"/>
	<path display="inline" fill="#FFFFFF" d="M288.201,46.574c0-8.4,4.601-13.351,11.601-13.351c6.05,0,11,3.8,11,11.95
		c0,1.101-0.05,2.45-0.2,3.351h-17.201c0.1,4.2,3.15,6.851,6.45,6.851c2.1,0,4-0.9,5.3-2.601l3.4,3.5c-1.85,2.2-4.75,3.7-8.75,3.7
		C292.702,59.975,288.201,54.975,288.201,46.574z M305.603,44.324c-0.1-4.75-3.05-6.501-5.8-6.501c-3.25,0-6.15,1.751-6.4,6.501
		H305.603z"/>
	<path display="inline" fill="#FFFFFF" d="M316.801,33.823h5.201v3.101c1.2-2.601,3.15-3.7,5.7-3.7c1.7,0,3.15,0.55,4.3,1.55
		l-0.75,4.801c-0.95-0.65-2.2-1.251-4.05-1.251c-2.3,0-5.2,1.45-5.2,6.701v14.351h-5.201V33.823z"/>
	<path display="inline" fill="#FFFFFF" d="M337.251,25.723l5.2-2.45v36.103h-5.2V25.723z"/>
	<path display="inline" fill="#FFFFFF" d="M357.251,58.925L347.7,33.823h5.15l6.3,16.701c0.35,0.95,0.5,1.45,0.7,2.25
		c0.2-0.8,0.35-1.3,0.7-2.25l6.35-16.701h5.2l-13.5,35.252h-5.3L357.251,58.925z"/>
	<path display="inline" fill="#FFFFFF" d="M389.351,24.373h14.051c8.601,0,11.551,5.45,11.551,10.7c0,4.9-3.25,10.701-11.551,10.701
		h-8.851v13.601h-5.2V24.373L389.351,24.373z M409.552,35.073c0-2.45-1.25-5.7-5.851-5.7h-9.15v11.4h9.15
		C408.051,40.773,409.552,37.773,409.552,35.073z"/>
	<path display="inline" fill="#FFFFFF" d="M434.05,57.175c-1.3,1.351-3.6,2.8-7,2.8c-5.2,0-9.101-2.899-9.101-8.55
		c0-5.9,4.8-8.451,9.801-8.451c2.35,0,4.6,0.5,6.3,1.5v-1.399c0-3.851-1.7-5.251-5.45-5.251c-3.198,0-5.398,0.9-7.301,2.301
		l-1.55-4.25c2.1-1.45,5.35-2.65,9.551-2.65c4.352,0,9.75,1.1,9.75,9.601v16.551h-5V57.175L434.05,57.175z M434.05,52.625v-3.9
		c-1.398-0.75-3.45-1.25-5.45-1.25c-3.1,0-5.648,1.149-5.648,3.95c0,2.399,1.75,3.95,5.05,3.95
		C430.65,55.375,432.7,54.125,434.05,52.625z"/>
	<path display="inline" fill="#FFFFFF" d="M452.6,58.925l-9.551-25.102h5.15l6.3,16.701c0.35,0.95,0.5,1.45,0.7,2.25
		c0.2-0.8,0.35-1.3,0.7-2.25l6.35-16.701h5.2l-13.5,35.252h-5.3L452.6,58.925z"/>
	<path display="inline" fill="#FFFFFF" d="M488.25,44.124c0-4.3-2.2-6-5.101-6c-3.102,0-5.5,1.5-5.5,5.9v15.351h-5.201V33.823h5.201
		v2.45c1.648-2.1,3.8-3.05,6.6-3.05c5.351,0,9.201,2.9,9.201,10.9v15.251h-5.2V44.124z"/>
	<path display="inline" fill="#FFFFFF" d="M499.449,46.574c0-8.4,4.6-13.351,11.601-13.351c6.05,0,11.001,3.8,11.001,11.95
		c0,1.101-0.051,2.45-0.201,3.351H504.65c0.1,4.2,3.147,6.851,6.448,6.851c2.102,0,4-0.9,5.303-2.601l3.398,3.5
		c-1.851,2.2-4.751,3.7-8.751,3.7C503.949,59.975,499.449,54.975,499.449,46.574z M516.85,44.324c-0.1-4.75-3.05-6.501-5.8-6.501
		c-3.251,0-6.148,1.751-6.398,6.501H516.85z"/>
</g>
<g display="none" enable-background="new    ">
	<path display="inline" fill="#FFFFFF" d="M224.654,43.774h-15.951v15.601h-5.2V24.373h5.2v14.501h15.951V24.373h5.201v35.002
		h-5.201V43.774z"/>
	<path display="inline" fill="#FFFFFF" d="M252.703,57.175c-1.3,1.351-3.6,2.8-7,2.8c-5.2,0-9.101-2.899-9.101-8.55
		c0-5.9,4.8-8.451,9.801-8.451c2.35,0,4.6,0.5,6.3,1.5v-1.399c0-3.851-1.7-5.251-5.45-5.251c-3.2,0-5.4,0.9-7.301,2.301l-1.55-4.25
		c2.1-1.45,5.35-2.65,9.551-2.65c4.35,0,9.75,1.1,9.75,9.601v16.551h-5V57.175z M252.703,52.625v-3.9c-1.4-0.75-3.45-1.25-5.45-1.25
		c-3.1,0-5.65,1.149-5.65,3.95c0,2.399,1.75,3.95,5.05,3.95C249.302,55.375,251.353,54.125,252.703,52.625z"/>
	<path display="inline" fill="#FFFFFF" d="M264.202,26.673c0-1.75,1.4-3.15,3.15-3.15s3.15,1.4,3.15,3.15s-1.4,3.15-3.15,3.15
		S264.202,28.423,264.202,26.673z M264.752,33.823h5.2v25.552h-5.2V33.823z"/>
	<path display="inline" fill="#FFFFFF" d="M277.751,25.723l5.201-2.45v36.103h-5.201V25.723z"/>
	<path display="inline" fill="#FFFFFF" d="M289.451,46.574c0-8.4,4.601-13.351,11.601-13.351c6.05,0,11,3.8,11,11.95
		c0,1.101-0.05,2.45-0.2,3.351h-17.201c0.1,4.2,3.15,6.851,6.45,6.851c2.1,0,4-0.9,5.3-2.601l3.4,3.5c-1.85,2.2-4.75,3.7-8.75,3.7
		C293.952,59.975,289.451,54.975,289.451,46.574z M306.853,44.324c-0.1-4.75-3.05-6.501-5.8-6.501c-3.25,0-6.15,1.751-6.4,6.501
		H306.853z"/>
	<path display="inline" fill="#FFFFFF" d="M325.102,58.925l-9.551-25.102h5.15l6.3,16.701c0.35,0.95,0.5,1.45,0.7,2.25
		c0.2-0.8,0.35-1.3,0.7-2.25l6.35-16.701h5.2l-13.5,35.252h-5.3L325.102,58.925z"/>
	<path display="inline" fill="#FFFFFF" d="M383.202,59.375V40.224c0-1.75,0.1-4.55,0.25-5.65c-0.55,1.65-1.45,4.15-2.15,5.801
		l-8.45,19.601l-8.5-19.751c-0.7-1.6-1.65-4-2.2-5.65c0.15,1.101,0.25,3.9,0.25,5.65v19.151h-5.2V24.373h5.25l9.401,21.852
		c0.35,0.85,0.7,1.899,0.95,2.75c0.25-0.851,0.65-1.9,1-2.75l9.351-21.852h5.25v35.002H383.202z"/>
	<path display="inline" fill="#FFFFFF" d="M395.4,46.624c0-8.4,4.5-13.4,11.651-13.4c7.151,0,11.701,5,11.701,13.4
		s-4.55,13.351-11.701,13.351C399.9,59.975,395.4,55.024,395.4,46.624z M413.551,46.624c0-5.25-2.5-8.5-6.5-8.5
		c-3.95,0-6.45,3.25-6.45,8.5c0,5.251,2.5,8.451,6.45,8.451C411.051,55.075,413.551,51.875,413.551,46.624z"/>
	<path display="inline" fill="#FFFFFF" d="M423.749,46.624c0-8.4,4.5-13.4,11.651-13.4c7.149,0,11.699,5,11.699,13.4
		s-4.55,13.351-11.699,13.351C428.249,59.975,423.749,55.024,423.749,46.624z M441.9,46.624c0-5.25-2.5-8.5-6.5-8.5
		c-3.95,0-6.45,3.25-6.45,8.5c0,5.251,2.5,8.451,6.45,8.451C439.4,55.075,441.9,51.875,441.9,46.624z"/>
	<path display="inline" fill="#FFFFFF" d="M453.348,33.823h5.201v3.101c1.2-2.601,3.15-3.7,5.7-3.7c1.7,0,3.15,0.55,4.3,1.55
		l-0.75,4.801c-0.95-0.65-2.2-1.251-4.05-1.251c-2.3,0-5.2,1.45-5.2,6.701v14.351h-5.201V33.823z"/>
	<path display="inline" fill="#FFFFFF" d="M472.298,46.574c0-8.4,4.603-13.351,11.603-13.351c6.05,0,11,3.8,11,11.95
		c0,1.101-0.052,2.45-0.2,3.351h-17.201c0.1,4.2,3.15,6.851,6.45,6.851c2.1,0,4-0.9,5.3-2.601l3.4,3.5c-1.852,2.2-4.75,3.7-8.75,3.7
		C476.798,59.975,472.298,54.975,472.298,46.574z M489.699,44.324c-0.102-4.75-3.05-6.501-5.8-6.501c-3.25,0-6.15,1.751-6.4,6.501
		H489.699z"/>
</g>
<g display="none" enable-background="new    ">
	<path display="inline" fill="#FFFFFF" d="M204.253,88.998h3.5V124h-3.5V88.998z"/>
	<path display="inline" fill="#FFFFFF" d="M243.703,121.5c-2.05,1.85-4.75,3.1-7.5,3.1c-5.15,0-8.701-2.897-8.701-8.648
		c0-5.9,4.451-8.45,9.301-8.45c2.15,0,4.4,0.45,6.9,1.8v-2.148c0-5.149-2.75-6.25-5.6-6.25c-2.55,0-5.701,1.449-7.601,2.75l-1-3
		c2.05-1.301,5.45-2.801,8.95-2.801c3.65,0,8.5,1.601,8.5,8.852V124h-3.25L243.703,121.5L243.703,121.5z M243.703,117.6v-4.949
		c-1.65-1.102-4.35-2.102-6.55-2.102c-3.45,0-6.4,1.7-6.4,5.4c0,3.351,2.1,5.601,5.8,5.601
		C239.653,121.55,242.153,119.5,243.703,117.6z"/>
	<path display="inline" fill="#FFFFFF" d="M284.854,108.35c0-3.201-0.75-7.351-5.55-7.351c-3.85,0-5.9,3.399-5.9,7.351V124h-3.5
		v-15.65c0-3.201-0.75-7.351-5.55-7.351c-3.95,0-5.9,3-5.9,6.95V124h-3.5V98.448h3.5v2.5c1.7-2,4.15-3.101,6.95-3.101
		c2.7,0,5.451,1.449,6.901,3.899c1.4-2.149,4-3.899,7.3-3.899c4.95,0,8.75,3.551,8.75,9.149V124h-3.5L284.854,108.35L284.854,108.35
		z"/>
	<path display="inline" fill="#FFFFFF" d="M306.101,98.448h3.5l4.2,18.401l0.6,2.799c0.25-1,0.5-1.851,0.75-2.799l5.35-18.401h2.4
		l5.35,18.401c0.3,1,0.55,2,0.85,3.049c0.2-1.049,0.45-2.049,0.65-3.049l4.05-18.401h3.5l-6.3,25.552h-3.15l-5.1-15.451
		c-0.25-0.8-0.7-2.1-1.1-3.449c-0.4,1.352-0.8,2.602-1.05,3.399l-5,15.501h-3.2L306.101,98.448z"/>
	<path display="inline" fill="#FFFFFF" d="M341.551,111.249c0-8.399,4.4-13.399,10.951-13.399s10.951,4.851,10.951,13.352
		c0,8.398-4.4,13.398-10.951,13.398C345.952,124.6,341.551,119.75,341.551,111.249z M359.803,111.199c0-6.352-2.55-10.2-7.301-10.2
		c-4.75,0-7.3,3.601-7.3,10.25c0,6.351,2.55,10.201,7.3,10.201C357.152,121.45,359.803,117.6,359.803,111.199z"/>
	<path display="inline" fill="#FFFFFF" d="M370.701,98.448h3.5v3.601c1.85-2.75,4.5-4.199,6.851-4.199c1.2,0,2.4,0.398,3.2,1.049
		l-0.55,3.4c-0.65-0.4-1.65-0.949-3.3-0.949c-2.3,0-6.2,1.899-6.2,8.199V124h-3.5L370.701,98.448L370.701,98.448z"/>
	<path display="inline" fill="#FFFFFF" d="M405.951,124l-8.2-16.201l-4.25,4.551V124H390V89.598l3.5-1.699V108.2l9.051-9.751h4.05
		l-6.4,6.801l9.6,18.75H405.951z"/>
	<path display="inline" fill="#FFFFFF" d="M415.049,90.898c0-1.353,1-2.4,2.3-2.4c1.35,0,2.3,1.05,2.3,2.4c0,1.3-0.95,2.3-2.3,2.3
		C416.05,93.198,415.049,92.198,415.049,90.898z M415.6,98.448h3.5V124h-3.5V98.448z"/>
	<path display="inline" fill="#FFFFFF" d="M443.901,108.398c0-5.399-2.552-7.399-5.951-7.399c-3.602,0-6.3,1.75-6.3,7.3V124h-3.5
		V98.448h3.5v2.801c1.6-2.301,3.898-3.399,6.601-3.399c6.25,0,9.15,3.549,9.15,12V124h-3.5V108.398z"/>
	<path display="inline" fill="#FFFFFF" d="M461.75,131.9c8.301-0.45,10.101-3.4,10.101-6.9v-3.9c-1.448,2.15-3.5,3.5-7,3.5
		c-5.5,0-10.449-4.5-10.449-13.398c0-8.4,4.398-13.352,10.649-13.352c3.9,0,5.95,2,6.8,3V98.45h3.5V123.6
		c0,8.4-5.75,10.801-12.001,11.051L461.75,131.9z M471.85,117.199v-12.301c-1.448-2.551-4.35-3.899-6.198-3.899
		c-5.052,0-7.603,3.649-7.603,10.2s3.25,10.251,7.603,10.251C467.75,121.45,470.45,119.85,471.85,117.199z"/>
	<path display="inline" fill="#FFFFFF" d="M495.849,98.448h3.5v3.601c1.852-2.75,4.5-4.199,6.852-4.199
		c1.2,0,2.398,0.398,3.201,1.049l-0.553,3.4c-0.648-0.4-1.648-0.949-3.301-0.949c-2.299,0-6.2,1.899-6.2,8.199V124h-3.5
		L495.849,98.448L495.849,98.448z"/>
	<path display="inline" fill="#FFFFFF" d="M513.398,111.199c0-8.501,4.55-13.352,11.101-13.352c5.45,0,10.101,3.75,10.101,12.352
		c0,0.55,0,1.35-0.1,2.449h-17.402c0.603,5.201,3.201,8.701,7.553,8.701c1.851,0,3.801-0.552,5.75-2l1.898,2.351
		c-2,1.649-4.85,2.899-7.8,2.899C517.598,124.6,513.398,118.398,513.398,111.199z M531.049,109.499c-0.05-6.899-3.85-8.5-6.55-8.5
		c-4.101,0-7.2,2.7-7.501,8.5H531.049z"/>
	<path display="inline" fill="#FFFFFF" d="M571.5,108.35c0-3.201-0.75-7.351-5.551-7.351c-3.852,0-5.9,3.399-5.9,7.351V124h-3.5
		v-15.65c0-3.201-0.75-7.351-5.551-7.351c-3.949,0-5.9,3-5.9,6.95V124h-3.5V98.448h3.5v2.5c1.701-2,4.15-3.101,6.951-3.101
		c2.699,0,5.45,1.449,6.9,3.899c1.398-2.149,4-3.899,7.301-3.899c4.949,0,8.75,3.551,8.75,9.149V124h-3.5V108.35L571.5,108.35z"/>
	<path display="inline" fill="#FFFFFF" d="M581.997,111.249c0-8.399,4.4-13.399,10.95-13.399c6.551,0,10.951,4.851,10.951,13.352
		c0,8.398-4.4,13.398-10.951,13.398S581.997,119.75,581.997,111.249z M600.248,111.199c0-6.352-2.55-10.2-7.301-10.2
		c-4.75,0-7.302,3.601-7.302,10.25c0,6.351,2.552,10.201,7.302,10.201C597.598,121.45,600.248,117.6,600.248,111.199z"/>
	<path display="inline" fill="#FFFFFF" d="M612.497,118.75V101.6h-4.351V98.45h4.351v-8.802l3.5-1.75V98.45h6.501v3.149h-6.501
		v15.65c0,2.2,0.3,4.05,2.75,4.05c1.7,0,2.9-0.85,3.851-1.5l-0.398,3.65c-1.3,0.7-2.7,1.149-4.65,1.149
		C613.896,124.6,612.497,122.1,612.497,118.75z"/>
	<path display="inline" fill="#FFFFFF" d="M627.346,111.199c0-8.501,4.553-13.352,11.104-13.352c5.45,0,10.101,3.75,10.101,12.352
		c0,0.55,0,1.35-0.101,2.449h-17.4c0.602,5.201,3.199,8.701,7.551,8.701c1.852,0,3.802-0.552,5.75-2l1.9,2.351
		c-2,1.649-4.852,2.899-7.801,2.899C631.547,124.6,627.346,118.398,627.346,111.199z M644.998,109.499
		c-0.051-6.899-3.852-8.5-6.551-8.5c-4.103,0-7.201,2.7-7.5,8.5H644.998z"/>
	<path display="inline" fill="#FFFFFF" d="M668.396,118.75V101.6h-4.354V98.45h4.354v-8.802l3.5-1.75V98.45h6.5v3.149h-6.5v15.65
		c0,2.2,0.299,4.05,2.75,4.05c1.697,0,2.898-0.85,3.85-1.5l-0.4,3.65c-1.299,0.7-2.699,1.149-4.647,1.149
		C669.796,124.6,668.396,122.1,668.396,118.75z"/>
	<path display="inline" fill="#FFFFFF" d="M683.245,111.249c0-8.399,4.398-13.399,10.95-13.399c6.551,0,10.951,4.851,10.951,13.352
		c0,8.398-4.4,13.398-10.951,13.398C687.646,124.6,683.245,119.75,683.245,111.249z M701.496,111.199c0-6.352-2.55-10.2-7.301-10.2
		c-4.75,0-7.302,3.601-7.302,10.25c0,6.351,2.552,10.201,7.302,10.201C698.846,121.45,701.496,117.6,701.496,111.199z"/>
	<path display="inline" fill="#FFFFFF" d="M710.645,111.199c0-8.4,4.053-13.352,10.553-13.352c3.148,0,5.25,1.148,6.801,2.399
		V89.646l3.5-1.75V124h-3.5v-2.2c-1.551,1.55-3.602,2.8-6.801,2.8C714.645,124.6,710.645,119.35,710.645,111.199z M727.996,117.449
		v-12.75c-1.051-1.7-3.15-3.7-6.4-3.7c-4.701,0-7.301,3.649-7.301,10.2c0,5.699,2.799,10.251,7.301,10.251
		C724.145,121.45,726.596,120,727.996,117.449z"/>
	<path display="inline" fill="#FFFFFF" d="M755.195,121.5c-2.049,1.85-4.75,3.1-7.5,3.1c-5.15,0-8.701-2.897-8.701-8.648
		c0-5.9,4.451-8.45,9.301-8.45c2.15,0,4.4,0.45,6.9,1.8v-2.148c0-5.149-2.75-6.25-5.602-6.25c-2.551,0-5.699,1.449-7.602,2.75l-1-3
		c2.051-1.301,5.451-2.801,8.951-2.801c3.648,0,8.5,1.601,8.5,8.852V124h-3.25L755.195,121.5L755.195,121.5z M755.195,117.6v-4.949
		c-1.65-1.102-4.352-2.102-6.553-2.102c-3.447,0-6.398,1.7-6.398,5.4c0,3.351,2.102,5.601,5.801,5.601
		C751.146,121.55,753.646,119.5,755.195,117.6z"/>
	<path display="inline" fill="#FFFFFF" d="M772.295,123.2l-9.35-24.752h3.551l6.449,18.151c0.301,0.85,0.551,1.698,0.85,2.6l0.9-2.6
		l6.551-18.151h3.75L771.945,133.7h-3.449L772.295,123.2z"/>
	<path display="inline" fill="#FFFFFF" d="M790.596,121.55c0-1.6,1.352-3.149,3.148-3.149c1.801,0,3.15,1.552,3.15,3.149
		c0,1.601-1.352,3.15-3.15,3.15S790.596,123.15,790.596,121.55z M792.045,99.248V88.396h3.6v10.852l-1.549,15.102h-0.551
		L792.045,99.248z"/>
</g>
<g enable-background="new    ">
	<path fill="#FFFFFF" d="M204.253,88.998h3.5V124h-3.5V88.998z"/>
	<path fill="#FFFFFF" d="M229.002,89.548l3.5-1.649v13.4c1.55-2.301,3.9-3.449,6.601-3.449c6.25,0,9.15,3.549,9.15,12V124h-3.5
		v-15.602c0-5.399-2.55-7.399-5.951-7.399c-3.6,0-6.3,1.75-6.3,7.3V124h-3.5V89.548L229.002,89.548z"/>
	<path fill="#FFFFFF" d="M271.703,121.5c-2.05,1.85-4.75,3.1-7.5,3.1c-5.15,0-8.701-2.897-8.701-8.648c0-5.9,4.451-8.45,9.301-8.45
		c2.15,0,4.4,0.45,6.9,1.8v-2.148c0-5.149-2.75-6.25-5.6-6.25c-2.55,0-5.701,1.449-7.601,2.75l-1-3
		c2.05-1.301,5.45-2.801,8.95-2.801c3.65,0,8.5,1.601,8.5,8.852V124h-3.25L271.703,121.5L271.703,121.5z M271.703,117.6v-4.949
		c-1.65-1.102-4.35-2.102-6.55-2.102c-3.45,0-6.4,1.7-6.4,5.4c0,3.351,2.1,5.601,5.8,5.601
		C267.653,121.55,270.153,119.5,271.703,117.6z"/>
	<path fill="#FFFFFF" d="M279.453,98.448h3.601l6.2,17.401c0.3,0.898,0.6,1.698,0.9,2.698c0.3-1,0.6-1.8,0.9-2.698l6.051-17.401h3.5
		L291.253,124h-2.45L279.453,98.448z"/>
	<path fill="#FFFFFF" d="M305.352,111.199c0-8.501,4.55-13.352,11.101-13.352c5.45,0,10.101,3.75,10.101,12.352
		c0,0.55,0,1.35-0.1,2.449h-17.401c0.6,5.201,3.2,8.701,7.551,8.701c1.85,0,3.8-0.552,5.75-2l1.9,2.351
		c-2,1.649-4.851,2.899-7.8,2.899C309.552,124.6,305.352,118.398,305.352,111.199z M323.003,109.499c-0.05-6.899-3.851-8.5-6.55-8.5
		c-4.101,0-7.201,2.7-7.5,8.5H323.003z"/>
	<path fill="#FFFFFF" d="M359.752,121.5c-2.05,1.85-4.75,3.1-7.5,3.1c-5.15,0-8.701-2.897-8.701-8.648c0-5.9,4.451-8.45,9.301-8.45
		c2.15,0,4.4,0.45,6.9,1.8v-2.148c0-5.149-2.75-6.25-5.601-6.25c-2.55,0-5.7,1.449-7.6,2.75l-1-3c2.05-1.301,5.45-2.801,8.95-2.801
		c3.65,0,8.5,1.601,8.5,8.852V124h-3.25L359.752,121.5L359.752,121.5z M359.752,117.6v-4.949c-1.65-1.102-4.35-2.102-6.55-2.102
		c-3.45,0-6.4,1.7-6.4,5.4c0,3.351,2.1,5.601,5.8,5.601C355.702,121.55,358.202,119.5,359.752,117.6z"/>
	<path fill="#FFFFFF" d="M380.751,111.249c0-8.399,3.95-13.399,10.501-13.399c3.8,0,6.8,1.898,8.2,5.352l-3.2,1.25
		c-0.8-1.95-2.35-3.45-5.15-3.45c-4.75,0-6.7,3.95-6.7,10.25c0,6.45,2.1,10.201,6.601,10.201c2.75,0,4.8-1.5,5.65-3.9l3.15,1.2
		c-1.2,3.602-4.6,5.852-8.951,5.852C384.701,124.6,380.751,119.75,380.751,111.249z"/>
	<path fill="#FFFFFF" d="M421.552,121.55c-1.8,2.351-3.701,3.05-6.351,3.05c-6.601,0-9.4-3.5-9.4-11.898V98.448h3.5v15.602
		c0,5.351,2.5,7.4,5.9,7.4c3.6,0,6.351-1.75,6.351-7.302v-15.7h3.5V124h-3.5V121.55z"/>
	<path fill="#FFFFFF" d="M432.451,120.148L434.9,118c1.55,1.85,4,3.5,6.649,3.5c2.8,0,5-1.3,5-3.7c0-3.101-3.25-4.45-6.35-5.7
		c-4.05-1.648-7.651-3.449-7.651-7.75c0-3.899,3.45-6.5,8.25-6.5c3.45,0,6.25,1.449,8.301,3.899l-2.3,1.95
		c-1.3-1.301-3.3-2.751-6.1-2.751c-2.95,0-4.853,1.301-4.853,3.351c0,2.602,2.852,3.7,5.853,4.9c3.8,1.5,8.148,3.25,8.148,8.4
		c0,4.25-3.3,7-8.601,7C437.801,124.6,434.601,122.7,432.451,120.148z"/>
	<path fill="#FFFFFF" d="M458.551,118.75V101.6H454.2V98.45h4.351v-8.802l3.5-1.75V98.45h6.5v3.149h-6.5v15.65
		c0,2.2,0.3,4.05,2.75,4.05c1.7,0,2.9-0.85,3.853-1.5l-0.4,3.65c-1.3,0.7-2.7,1.149-4.649,1.149
		C459.951,124.6,458.551,122.1,458.551,118.75z"/>
	<path fill="#FFFFFF" d="M473.4,111.249c0-8.399,4.398-13.399,10.949-13.399c6.553,0,10.951,4.851,10.951,13.352
		c0,8.398-4.398,13.398-10.951,13.398C477.8,124.6,473.4,119.75,473.4,111.249z M491.651,111.199c0-6.352-2.552-10.2-7.303-10.2
		c-4.75,0-7.3,3.601-7.3,10.25c0,6.351,2.55,10.201,7.3,10.201C489.001,121.45,491.651,117.6,491.651,111.199z"/>
	<path fill="#FFFFFF" d="M532.451,108.35c0-3.201-0.75-7.351-5.551-7.351c-3.852,0-5.9,3.399-5.9,7.351V124h-3.5v-15.65
		c0-3.201-0.75-7.351-5.55-7.351c-3.95,0-5.9,3-5.9,6.95V124h-3.5V98.448h3.5v2.5c1.7-2,4.15-3.101,6.95-3.101
		c2.7,0,5.451,1.449,6.9,3.899c1.398-2.149,4-3.899,7.301-3.899c4.95,0,8.75,3.551,8.75,9.149V124h-3.5V108.35z"/>
	<path fill="#FFFFFF" d="M542.949,111.199c0-8.501,4.55-13.352,11.101-13.352c5.45,0,10.103,3.75,10.103,12.352
		c0,0.55,0,1.35-0.102,2.449h-17.4c0.601,5.201,3.199,8.701,7.551,8.701c1.851,0,3.801-0.552,5.75-2l1.898,2.351
		c-2,1.649-4.85,2.899-7.8,2.899C547.148,124.6,542.949,118.398,542.949,111.199z M560.6,109.499c-0.05-6.899-3.85-8.5-6.55-8.5
		c-4.101,0-7.2,2.7-7.501,8.5H560.6z"/>
	<path fill="#FFFFFF" d="M571.148,98.448h3.5v3.601c1.851-2.75,4.501-4.199,6.852-4.199c1.199,0,2.399,0.398,3.199,1.049l-0.55,3.4
		c-0.649-0.4-1.649-0.949-3.302-0.949c-2.301,0-6.199,1.899-6.199,8.199V124h-3.5V98.448L571.148,98.448z"/>
	<path fill="#FFFFFF" d="M631.85,108.35c0-3.201-0.75-7.351-5.551-7.351c-3.85,0-5.9,3.399-5.9,7.351V124h-3.5v-15.65
		c0-3.201-0.75-7.351-5.55-7.351c-3.95,0-5.898,3-5.898,6.95V124h-3.5V98.448h3.5v2.5c1.698-2,4.148-3.101,6.948-3.101
		c2.7,0,5.451,1.449,6.9,3.899c1.4-2.149,4-3.899,7.301-3.899c4.95,0,8.75,3.551,8.75,9.149V124h-3.5V108.35z"/>
	<path fill="#FFFFFF" d="M642.348,111.199c0-8.501,4.552-13.352,11.103-13.352c5.45,0,10.101,3.75,10.101,12.352
		c0,0.55,0,1.35-0.1,2.449h-17.402c0.603,5.201,3.201,8.701,7.553,8.701c1.851,0,3.801-0.552,5.75-2l1.898,2.351
		c-2,1.649-4.85,2.899-7.8,2.899C646.547,124.6,642.348,118.398,642.348,111.199z M659.998,109.499c-0.05-6.899-3.85-8.5-6.55-8.5
		c-4.103,0-7.2,2.7-7.501,8.5H659.998z"/>
	<path fill="#FFFFFF" d="M668.797,111.199c0-8.501,4.55-13.352,11.103-13.352c5.448,0,10.101,3.75,10.101,12.352
		c0,0.55,0,1.35-0.1,2.449h-17.402c0.601,5.201,3.201,8.701,7.551,8.701c1.853,0,3.803-0.552,5.75-2l1.9,2.351
		c-2,1.649-4.852,2.899-7.8,2.899C672.996,124.6,668.797,118.398,668.797,111.199z M686.447,109.499c-0.05-6.899-3.852-8.5-6.55-8.5
		c-4.103,0-7.2,2.7-7.501,8.5H686.447z"/>
	<path fill="#FFFFFF" d="M697.848,118.75V101.6h-4.352V98.45h4.352v-8.802l3.5-1.75V98.45h6.5v3.149h-6.5v15.65
		c0,2.2,0.301,4.05,2.75,4.05c1.699,0,2.9-0.85,3.852-1.5l-0.4,3.65c-1.299,0.7-2.699,1.149-4.648,1.149
		C699.246,124.6,697.848,122.1,697.848,118.75z"/>
	<path fill="#FFFFFF" d="M714.445,90.898c0-1.353,1-2.4,2.301-2.4c1.35,0,2.301,1.05,2.301,2.4c0,1.3-0.951,2.3-2.301,2.3
		C715.445,93.198,714.445,92.198,714.445,90.898z M714.996,98.448h3.5V124h-3.5V98.448z"/>
	<path fill="#FFFFFF" d="M743.297,108.398c0-5.399-2.551-7.399-5.951-7.399c-3.6,0-6.301,1.75-6.301,7.3V124h-3.5V98.448h3.5v2.801
		c1.602-2.301,3.9-3.399,6.602-3.399c6.25,0,9.15,3.549,9.15,12V124h-3.5V108.398z"/>
	<path fill="#FFFFFF" d="M761.146,131.9c8.301-0.45,10.1-3.4,10.1-6.9v-3.9c-1.449,2.15-3.5,3.5-7,3.5
		c-5.5,0-10.451-4.5-10.451-13.398c0-8.4,4.4-13.352,10.65-13.352c3.898,0,5.951,2,6.801,3V98.45h3.5V123.6
		c0,8.4-5.75,10.801-12,11.051L761.146,131.9z M771.246,117.199v-12.301c-1.449-2.551-4.35-3.899-6.199-3.899
		c-5.051,0-7.602,3.649-7.602,10.2s3.25,10.251,7.602,10.251C767.146,121.45,769.846,119.85,771.246,117.199z"/>
</g>
<g display="none" enable-background="new    ">
	<path display="inline" fill="#FFFFFF" d="M204.253,88.998h3.5V124h-3.5V88.998z"/>
	<path display="inline" fill="#FFFFFF" d="M243.703,121.5c-2.05,1.85-4.75,3.1-7.5,3.1c-5.15,0-8.701-2.897-8.701-8.648
		c0-5.9,4.451-8.45,9.301-8.45c2.15,0,4.4,0.45,6.9,1.8v-2.148c0-5.149-2.75-6.25-5.6-6.25c-2.55,0-5.701,1.449-7.601,2.75l-1-3
		c2.05-1.301,5.45-2.801,8.95-2.801c3.65,0,8.5,1.601,8.5,8.852V124h-3.25L243.703,121.5L243.703,121.5z M243.703,117.6v-4.949
		c-1.65-1.102-4.35-2.102-6.55-2.102c-3.45,0-6.4,1.7-6.4,5.4c0,3.351,2.1,5.601,5.8,5.601
		C239.653,121.55,242.153,119.5,243.703,117.6z"/>
	<path display="inline" fill="#FFFFFF" d="M284.854,108.35c0-3.201-0.75-7.351-5.55-7.351c-3.85,0-5.9,3.399-5.9,7.351V124h-3.5
		v-15.65c0-3.201-0.75-7.351-5.55-7.351c-3.95,0-5.9,3-5.9,6.95V124h-3.5V98.448h3.5v2.5c1.7-2,4.15-3.101,6.95-3.101
		c2.7,0,5.451,1.449,6.901,3.899c1.4-2.149,4-3.899,7.3-3.899c4.95,0,8.75,3.551,8.75,9.149V124h-3.5L284.854,108.35L284.854,108.35
		z"/>
	<path display="inline" fill="#FFFFFF" d="M307.001,120.148l2.45-2.148c1.55,1.85,4,3.5,6.651,3.5c2.8,0,5-1.3,5-3.7
		c0-3.101-3.25-4.45-6.35-5.7c-4.05-1.648-7.651-3.449-7.651-7.75c0-3.899,3.45-6.5,8.25-6.5c3.45,0,6.25,1.449,8.301,3.899
		l-2.3,1.95c-1.3-1.301-3.3-2.751-6.1-2.751c-2.95,0-4.851,1.301-4.851,3.351c0,2.602,2.85,3.7,5.851,4.9
		c3.8,1.5,8.15,3.25,8.15,8.4c0,4.25-3.3,7-8.601,7C312.352,124.6,309.151,122.7,307.001,120.148z"/>
	<path display="inline" fill="#FFFFFF" d="M331.251,90.898c0-1.353,1-2.4,2.3-2.4c1.35,0,2.3,1.05,2.3,2.4c0,1.3-0.95,2.3-2.3,2.3
		C332.251,93.198,331.251,92.198,331.251,90.898z M331.801,98.448h3.5V124h-3.5V98.448z"/>
	<path display="inline" fill="#FFFFFF" d="M342.601,111.249c0-8.399,3.95-13.399,10.501-13.399c3.8,0,6.8,1.898,8.2,5.352l-3.2,1.25
		c-0.8-1.95-2.35-3.45-5.15-3.45c-4.75,0-6.7,3.95-6.7,10.25c0,6.45,2.1,10.201,6.601,10.201c2.75,0,4.8-1.5,5.65-3.9l3.15,1.2
		c-1.2,3.602-4.6,5.852-8.951,5.852C346.551,124.6,342.601,119.75,342.601,111.249z"/>
	<path display="inline" fill="#FFFFFF" d="M384.352,124l-8.2-16.201l-4.25,4.551V124h-3.5V89.598l3.5-1.699V108.2l9.051-9.751h4.05
		l-6.4,6.801l9.599,18.75H384.352z"/>
	<path display="inline" fill="#FFFFFF" d="M406.8,118.75V101.6h-4.351V98.45h4.351v-8.802l3.5-1.75V98.45h6.5v3.149h-6.5v15.65
		c0,2.2,0.3,4.05,2.75,4.05c1.7,0,2.9-0.85,3.851-1.5l-0.4,3.65c-1.3,0.7-2.7,1.149-4.65,1.149
		C408.2,124.6,406.8,122.1,406.8,118.75z"/>
	<path display="inline" fill="#FFFFFF" d="M421.649,111.249c0-8.399,4.398-13.399,10.949-13.399c6.553,0,10.951,4.851,10.951,13.352
		c0,8.398-4.398,13.398-10.951,13.398C426.049,124.6,421.649,119.75,421.649,111.249z M439.9,111.199c0-6.352-2.552-10.2-7.303-10.2
		c-4.75,0-7.3,3.601-7.3,10.25c0,6.351,2.55,10.201,7.3,10.201C437.25,121.45,439.9,117.6,439.9,111.199z"/>
	<path display="inline" fill="#FFFFFF" d="M449.048,111.199c0-8.4,4.05-13.352,10.551-13.352c3.15,0,5.25,1.148,6.802,2.399V89.646
		l3.5-1.75V124h-3.5v-2.2c-1.552,1.55-3.602,2.8-6.802,2.8C453.049,124.6,449.048,119.35,449.048,111.199z M466.399,117.449v-12.75
		c-1.052-1.7-3.15-3.7-6.4-3.7c-4.7,0-7.3,3.649-7.3,10.2c0,5.699,2.8,10.251,7.3,10.251C462.549,121.45,465,120,466.399,117.449z"
		/>
	<path display="inline" fill="#FFFFFF" d="M493.6,121.5c-2.05,1.85-4.75,3.1-7.5,3.1c-5.148,0-8.699-2.897-8.699-8.648
		c0-5.9,4.449-8.45,9.301-8.45c2.148,0,4.398,0.45,6.898,1.8v-2.148c0-5.149-2.75-6.25-5.6-6.25c-2.55,0-5.701,1.449-7.602,2.75
		l-1-3c2.051-1.301,5.449-2.801,8.949-2.801c3.65,0,8.5,1.601,8.5,8.852V124h-3.25L493.6,121.5L493.6,121.5z M493.6,117.6v-4.949
		c-1.648-1.102-4.35-2.102-6.55-2.102c-3.45,0-6.398,1.7-6.398,5.4c0,3.351,2.1,5.601,5.8,5.601
		C489.549,121.55,492.049,119.5,493.6,117.6z"/>
	<path display="inline" fill="#FFFFFF" d="M510.699,123.2l-9.353-24.752h3.552l6.449,18.151c0.301,0.85,0.551,1.698,0.852,2.6
		l0.898-2.6l6.553-18.151h3.75L510.35,133.7H506.9L510.699,123.2z"/>
	<path display="inline" fill="#FFFFFF" d="M556.1,121.5c-2.051,1.85-4.75,3.1-7.5,3.1c-5.148,0-8.699-2.897-8.699-8.648
		c0-5.9,4.449-8.45,9.301-8.45c2.148,0,4.398,0.45,6.898,1.8v-2.148c0-5.149-2.75-6.25-5.6-6.25c-2.551,0-5.701,1.449-7.602,2.75
		l-1-3c2.051-1.301,5.449-2.801,8.949-2.801c3.65,0,8.5,1.601,8.5,8.852V124h-3.25L556.1,121.5L556.1,121.5z M556.1,117.6v-4.949
		c-1.648-1.102-4.35-2.102-6.551-2.102c-3.449,0-6.4,1.7-6.4,5.4c0,3.351,2.103,5.601,5.803,5.601
		C552.049,121.55,554.549,119.5,556.1,117.6z"/>
	<path display="inline" fill="#FFFFFF" d="M583.1,108.398c0-5.399-2.551-7.399-5.949-7.399c-3.602,0-6.302,1.75-6.302,7.3V124h-3.5
		V98.448h3.5v2.801c1.603-2.301,3.9-3.399,6.603-3.399c6.25,0,9.148,3.549,9.148,12V124h-3.5V108.398L583.1,108.398z"/>
	<path display="inline" fill="#FFFFFF" d="M593.598,111.199c0-8.4,4.053-13.352,10.553-13.352c3.148,0,5.251,1.148,6.801,2.399
		V89.646l3.5-1.75V124h-3.5v-2.2c-1.55,1.55-3.602,2.8-6.801,2.8C597.599,124.6,593.598,119.35,593.598,111.199z M610.949,117.449
		v-12.75c-1.05-1.7-3.15-3.7-6.4-3.7c-4.7,0-7.301,3.649-7.301,10.2c0,5.699,2.801,10.251,7.301,10.251
		C607.1,121.45,609.549,120,610.949,117.449z"/>
	<path display="inline" fill="#FFFFFF" d="M633.348,120.148l2.45-2.148c1.55,1.85,4.001,3.5,6.651,3.5c2.799,0,5-1.3,5-3.7
		c0-3.101-3.25-4.45-6.353-5.7c-4.05-1.648-7.649-3.449-7.649-7.75c0-3.899,3.451-6.5,8.251-6.5c3.45,0,6.251,1.449,8.301,3.899
		l-2.3,1.95c-1.301-1.301-3.301-2.751-6.103-2.751c-2.948,0-4.851,1.301-4.851,3.351c0,2.602,2.85,3.7,5.851,4.9
		c3.802,1.5,8.15,3.25,8.15,8.4c0,4.25-3.3,7-8.601,7C638.698,124.6,635.498,122.7,633.348,120.148z"/>
	<path display="inline" fill="#FFFFFF" d="M659.448,118.75V101.6h-4.353V98.45h4.353v-8.802l3.5-1.75V98.45h6.501v3.149h-6.501
		v15.65c0,2.2,0.3,4.05,2.75,4.05c1.7,0,2.898-0.85,3.851-1.5l-0.398,3.65c-1.302,0.7-2.7,1.149-4.65,1.149
		C660.848,124.6,659.448,122.1,659.448,118.75z"/>
	<path display="inline" fill="#FFFFFF" d="M690.748,121.5c-2.05,1.85-4.75,3.1-7.5,3.1c-5.15,0-8.701-2.897-8.701-8.648
		c0-5.9,4.451-8.45,9.301-8.45c2.15,0,4.4,0.45,6.9,1.8v-2.148c0-5.149-2.75-6.25-5.6-6.25c-2.553,0-5.701,1.449-7.603,2.75l-1-3
		c2.05-1.301,5.45-2.801,8.95-2.801c3.65,0,8.5,1.601,8.5,8.852V124h-3.25L690.748,121.5L690.748,121.5z M690.748,117.6v-4.949
		c-1.649-1.102-4.35-2.102-6.55-2.102c-3.45,0-6.4,1.7-6.4,5.4c0,3.351,2.103,5.601,5.8,5.601
		C686.698,121.55,689.198,119.5,690.748,117.6z"/>
	<path display="inline" fill="#FFFFFF" d="M707.848,123.2l-9.35-24.752h3.551l6.449,18.151c0.301,0.85,0.551,1.698,0.85,2.6l0.9-2.6
		l6.551-18.151h3.75L707.498,133.7h-3.449L707.848,123.2z"/>
	<path display="inline" fill="#FFFFFF" d="M753.248,121.5c-2.049,1.85-4.75,3.1-7.5,3.1c-5.15,0-8.701-2.897-8.701-8.648
		c0-5.9,4.451-8.45,9.301-8.45c2.15,0,4.4,0.45,6.9,1.8v-2.148c0-5.149-2.75-6.25-5.6-6.25c-2.553,0-5.701,1.449-7.604,2.75l-1-3
		c2.051-1.301,5.451-2.801,8.951-2.801c3.65,0,8.5,1.601,8.5,8.852V124h-3.25L753.248,121.5L753.248,121.5z M753.248,117.6v-4.949
		c-1.65-1.102-4.35-2.102-6.551-2.102c-3.449,0-6.4,1.7-6.4,5.4c0,3.351,2.102,5.601,5.801,5.601
		C749.199,121.55,751.699,119.5,753.248,117.6z"/>
	<path display="inline" fill="#FFFFFF" d="M765.848,118.75V101.6h-4.35V98.45h4.35v-8.802l3.5-1.75V98.45h6.5v3.149h-6.5v15.65
		c0,2.2,0.303,4.05,2.75,4.05c1.701,0,2.9-0.85,3.854-1.5l-0.4,3.65c-1.301,0.7-2.701,1.149-4.648,1.149
		C767.248,124.6,765.848,122.1,765.848,118.75z"/>
	<path display="inline" fill="#FFFFFF" d="M794.447,89.548l3.5-1.649v13.4c1.551-2.301,3.898-3.449,6.6-3.449
		c6.252,0,9.15,3.549,9.15,12V124h-3.5v-15.602c0-5.399-2.549-7.399-5.949-7.399c-3.602,0-6.301,1.75-6.301,7.3V124h-3.5V89.548z"/>
	<path display="inline" fill="#FFFFFF" d="M820.695,111.249c0-8.399,4.398-13.399,10.951-13.399c6.551,0,10.949,4.851,10.949,13.352
		c0,8.398-4.398,13.398-10.949,13.398C825.095,124.6,820.695,119.75,820.695,111.249z M838.947,111.199
		c0-6.352-2.551-10.2-7.301-10.2s-7.303,3.601-7.303,10.25c0,6.351,2.553,10.201,7.303,10.201
		C836.297,121.45,838.947,117.6,838.947,111.199z"/>
	<path display="inline" fill="#FFFFFF" d="M879.748,108.35c0-3.201-0.75-7.351-5.551-7.351c-3.852,0-5.9,3.399-5.9,7.351V124h-3.5
		v-15.65c0-3.201-0.75-7.351-5.551-7.351c-3.951,0-5.9,3-5.9,6.95V124h-3.5V98.448h3.5v2.5c1.699-2,4.15-3.101,6.951-3.101
		c2.699,0,5.449,1.449,6.9,3.899c1.396-2.149,4-3.899,7.299-3.899c4.951,0,8.752,3.551,8.752,9.149V124h-3.5V108.35L879.748,108.35z
		"/>
	<path display="inline" fill="#FFFFFF" d="M890.244,111.199c0-8.501,4.551-13.352,11.102-13.352c5.449,0,10.102,3.75,10.102,12.352
		c0,0.55,0,1.35-0.102,2.449h-17.398c0.6,5.201,3.197,8.701,7.551,8.701c1.85,0,3.799-0.552,5.75-2l1.9,2.351
		c-2,1.649-4.854,2.899-7.803,2.899C894.445,124.6,890.244,118.398,890.244,111.199z M907.896,109.499
		c-0.053-6.899-3.854-8.5-6.553-8.5c-4.1,0-7.201,2.7-7.5,8.5H907.896z"/>
</g>
<g display="none" enable-background="new    ">
	<path display="inline" fill="#FFFFFF" d="M204.253,88.998h3.5V124h-3.5V88.998z"/>
	<path display="inline" fill="#FFFFFF" d="M243.703,121.5c-2.05,1.85-4.75,3.1-7.5,3.1c-5.15,0-8.701-2.897-8.701-8.648
		c0-5.9,4.451-8.45,9.301-8.45c2.15,0,4.4,0.45,6.9,1.8v-2.148c0-5.149-2.75-6.25-5.6-6.25c-2.55,0-5.701,1.449-7.601,2.75l-1-3
		c2.05-1.301,5.45-2.801,8.95-2.801c3.65,0,8.5,1.601,8.5,8.852V124h-3.25L243.703,121.5L243.703,121.5z M243.703,117.6v-4.949
		c-1.65-1.102-4.35-2.102-6.55-2.102c-3.45,0-6.4,1.7-6.4,5.4c0,3.351,2.1,5.601,5.8,5.601
		C239.653,121.55,242.153,119.5,243.703,117.6z"/>
	<path display="inline" fill="#FFFFFF" d="M284.854,108.35c0-3.201-0.75-7.351-5.55-7.351c-3.85,0-5.9,3.399-5.9,7.351V124h-3.5
		v-15.65c0-3.201-0.75-7.351-5.55-7.351c-3.95,0-5.9,3-5.9,6.95V124h-3.5V98.448h3.5v2.5c1.7-2,4.15-3.101,6.95-3.101
		c2.7,0,5.451,1.449,6.901,3.899c1.4-2.149,4-3.899,7.3-3.899c4.95,0,8.75,3.551,8.75,9.149V124h-3.5L284.854,108.35L284.854,108.35
		z"/>
	<path display="inline" fill="#FFFFFF" d="M308.101,90.898c0-1.353,1-2.4,2.3-2.4c1.35,0,2.3,1.05,2.3,2.4c0,1.3-0.95,2.3-2.3,2.3
		C309.102,93.198,308.101,92.198,308.101,90.898z M308.651,98.448h3.5V124h-3.5V98.448z"/>
	<path display="inline" fill="#FFFFFF" d="M336.953,108.398c0-5.399-2.55-7.399-5.951-7.399c-3.6,0-6.3,1.75-6.3,7.3V124h-3.5
		V98.448h3.5v2.801c1.6-2.301,3.9-3.399,6.601-3.399c6.25,0,9.15,3.549,9.15,12V124h-3.5V108.398L336.953,108.398z"/>
	<path display="inline" fill="#FFFFFF" d="M362.051,118.75V101.6H357.7V98.45h4.351v-8.802l3.5-1.75V98.45h6.5v3.149h-6.5v15.65
		c0,2.2,0.3,4.05,2.75,4.05c1.7,0,2.9-0.85,3.851-1.5l-0.4,3.65c-1.3,0.7-2.7,1.149-4.65,1.149
		C363.451,124.6,362.051,122.1,362.051,118.75z"/>
	<path display="inline" fill="#FFFFFF" d="M379.151,89.548l3.5-1.649v13.4c1.55-2.301,3.9-3.449,6.601-3.449
		c6.25,0,9.15,3.549,9.15,12V124h-3.5v-15.602c0-5.399-2.55-7.399-5.951-7.399c-3.6,0-6.3,1.75-6.3,7.3V124h-3.5V89.548
		L379.151,89.548z"/>
	<path display="inline" fill="#FFFFFF" d="M405.4,111.199c0-8.501,4.55-13.352,11.101-13.352c5.45,0,10.101,3.75,10.101,12.352
		c0,0.55,0,1.35-0.1,2.449H409.1c0.6,5.201,3.2,8.701,7.551,8.701c1.85,0,3.8-0.552,5.75-2l1.898,2.351
		c-2,1.649-4.851,2.899-7.8,2.899C409.6,124.6,405.4,118.398,405.4,111.199z M423.051,109.499c-0.05-6.899-3.851-8.5-6.55-8.5
		c-4.101,0-7.201,2.7-7.5,8.5H423.051z"/>
	<path display="inline" fill="#FFFFFF" d="M443.35,111.249c0-8.399,4.4-13.399,10.951-13.399s10.951,4.851,10.951,13.352
		c0,8.398-4.4,13.398-10.951,13.398S443.35,119.75,443.35,111.249z M461.601,111.199c0-6.352-2.55-10.2-7.301-10.2
		c-4.75,0-7.3,3.601-7.3,10.25c0,6.351,2.55,10.201,7.3,10.201C458.951,121.45,461.601,117.6,461.601,111.199z"/>
	<path display="inline" fill="#FFFFFF" d="M477.1,124h-3.5v-22.4h-4.1V98.45h4.1V94.1c0-4.201,2.65-5.701,5.303-5.701
		c1.898,0,3.25,0.602,4.35,1.199v3.051c-1.05-0.551-2.2-1-3.65-1c-2.448,0-2.5,1.602-2.5,3v3.802h6.15v3.149h-6.15L477.1,124
		L477.1,124z"/>
	<path display="inline" fill="#FFFFFF" d="M494.349,124h-3.5v-22.4h-4.1V98.45h4.1V94.1c0-4.201,2.65-5.701,5.303-5.701
		c1.898,0,3.25,0.602,4.35,1.199v3.051c-1.05-0.551-2.2-1-3.65-1c-2.448,0-2.5,1.602-2.5,3v3.802h6.15v3.149h-6.15L494.349,124
		L494.349,124z M505.75,90.898c0-1.353,1-2.4,2.299-2.4c1.353,0,2.301,1.05,2.301,2.4c0,1.3-0.948,2.3-2.301,2.3
		C506.75,93.198,505.75,92.198,505.75,90.898z M506.299,98.448h3.5V124h-3.5V98.448z"/>
	<path display="inline" fill="#FFFFFF" d="M517.098,111.249c0-8.399,3.95-13.399,10.501-13.399c3.802,0,6.802,1.898,8.2,5.352
		l-3.2,1.25c-0.8-1.95-2.351-3.45-5.148-3.45c-4.75,0-6.7,3.95-6.7,10.25c0,6.45,2.1,10.201,6.601,10.201c2.75,0,4.802-1.5,5.65-3.9
		l3.149,1.2c-1.199,3.602-4.602,5.852-8.95,5.852C521.048,124.6,517.098,119.75,517.098,111.249z"/>
	<path display="inline" fill="#FFFFFF" d="M541.146,111.199c0-8.501,4.551-13.352,11.102-13.352c5.45,0,10.101,3.75,10.101,12.352
		c0,0.55,0,1.35-0.101,2.449h-17.4c0.602,5.201,3.199,8.701,7.553,8.701c1.85,0,3.8-0.552,5.75-2l1.898,2.351
		c-2,1.649-4.852,2.899-7.801,2.899C545.348,124.6,541.146,118.398,541.146,111.199z M558.799,109.499
		c-0.051-6.899-3.852-8.5-6.551-8.5c-4.102,0-7.201,2.7-7.5,8.5H558.799z"/>
	<path display="inline" fill="#FFFFFF" d="M580.346,90.898c0-1.353,1.001-2.4,2.303-2.4c1.35,0,2.301,1.05,2.301,2.4
		c0,1.3-0.951,2.3-2.301,2.3C581.347,93.198,580.346,92.198,580.346,90.898z M580.896,98.448h3.5V124h-3.5V98.448z"/>
	<path display="inline" fill="#FFFFFF" d="M609.197,108.398c0-5.399-2.55-7.399-5.95-7.399c-3.601,0-6.3,1.75-6.3,7.3V124h-3.5
		V98.448h3.5v2.801c1.6-2.301,3.898-3.399,6.6-3.399c6.25,0,9.15,3.549,9.15,12V124h-3.5V108.398z"/>
	<path display="inline" fill="#FFFFFF" d="M636.646,95.35h-5.951v-2.002c3.501,0,6.102-1.05,7.201-4.35h2.25V124h-3.5V95.35z"/>
	<path display="inline" fill="#FFFFFF" d="M649.396,106.499c0-7.301,2.25-18.103,12-18.103c9.149,0,12,9.552,12,18.103
		c0,7.399-2.351,18.101-12,18.101C652.246,124.6,649.396,115.249,649.396,106.499z M669.646,106.499
		c0-7.251-1.649-14.951-8.25-14.951c-7,0-8.353,8.601-8.353,14.951c0,7.351,1.65,14.951,8.353,14.951
		C668.396,121.45,669.646,112.949,669.646,106.499z"/>
	<path display="inline" fill="#FFFFFF" d="M723.047,108.35c0-3.201-0.75-7.351-5.551-7.351c-3.85,0-5.9,3.399-5.9,7.351V124h-3.5
		v-15.65c0-3.201-0.75-7.351-5.551-7.351c-3.949,0-5.899,3-5.899,6.95V124h-3.5V98.448h3.5v2.5c1.7-2,4.149-3.101,6.95-3.101
		c2.701,0,5.451,1.449,6.9,3.899c1.4-2.149,4-3.899,7.301-3.899c4.951,0,8.75,3.551,8.75,9.149V124h-3.5V108.35z"/>
	<path display="inline" fill="#FFFFFF" d="M734.795,90.898c0-1.353,1-2.4,2.301-2.4c1.352,0,2.299,1.05,2.299,2.4
		c0,1.3-0.947,2.3-2.299,2.3C735.795,93.198,734.795,92.198,734.795,90.898z M735.344,98.448h3.502V124h-3.502V98.448z"/>
	<path display="inline" fill="#FFFFFF" d="M763.645,108.398c0-5.399-2.549-7.399-5.947-7.399c-3.604,0-6.303,1.75-6.303,7.3V124
		h-3.5V98.448h3.5v2.801c1.602-2.301,3.9-3.399,6.602-3.399c6.252,0,9.148,3.549,9.148,12V124h-3.5V108.398z"/>
	<path display="inline" fill="#FFFFFF" d="M791.395,121.55c-1.799,2.351-3.697,3.05-6.35,3.05c-6.6,0-9.4-3.5-9.4-11.898V98.448h3.5
		v15.602c0,5.351,2.5,7.4,5.9,7.4c3.6,0,6.35-1.75,6.35-7.302v-15.7h3.5V124h-3.5V121.55z"/>
	<path display="inline" fill="#FFFFFF" d="M805.244,118.75V101.6h-4.35V98.45h4.35v-8.802l3.5-1.75V98.45h6.5v3.149h-6.5v15.65
		c0,2.2,0.301,4.05,2.75,4.05c1.701,0,2.9-0.85,3.852-1.5l-0.398,3.65c-1.303,0.7-2.701,1.149-4.65,1.149
		C806.645,124.6,805.244,122.1,805.244,118.75z"/>
	<path display="inline" fill="#FFFFFF" d="M820.094,111.199c0-8.501,4.551-13.352,11.102-13.352c5.449,0,10.102,3.75,10.102,12.352
		c0,0.55,0,1.35-0.1,2.449h-17.402c0.604,5.201,3.201,8.701,7.551,8.701c1.852,0,3.803-0.552,5.75-2l1.9,2.351
		c-2,1.649-4.85,2.899-7.801,2.899C824.293,124.6,820.094,118.398,820.094,111.199z M837.744,109.499
		c-0.049-6.899-3.85-8.5-6.551-8.5c-4.102,0-7.199,2.7-7.5,8.5H837.744z"/>
	<path display="inline" fill="#FFFFFF" d="M846.693,120.148l2.449-2.148c1.551,1.85,4,3.5,6.65,3.5c2.799,0,5-1.3,5-3.7
		c0-3.101-3.25-4.45-6.352-5.7c-4.051-1.648-7.65-3.449-7.65-7.75c0-3.899,3.451-6.5,8.252-6.5c3.449,0,6.25,1.449,8.299,3.899
		l-2.299,1.95c-1.301-1.301-3.301-2.751-6.102-2.751c-2.949,0-4.852,1.301-4.852,3.351c0,2.602,2.852,3.7,5.852,4.9
		c3.801,1.5,8.148,3.25,8.148,8.4c0,4.25-3.299,7-8.6,7C852.045,124.6,848.844,122.7,846.693,120.148z"/>
</g>
<g display="none" enable-background="new    ">
	<path display="inline" fill="#FFFFFF" d="M204.253,88.998h3.5V124h-3.5V88.998z"/>
	<path display="inline" fill="#FFFFFF" d="M229.002,89.548l3.5-1.649v13.4c1.55-2.301,3.9-3.449,6.601-3.449
		c6.25,0,9.15,3.549,9.15,12V124h-3.5v-15.602c0-5.399-2.55-7.399-5.951-7.399c-3.6,0-6.3,1.75-6.3,7.3V124h-3.5V89.548
		L229.002,89.548z"/>
	<path display="inline" fill="#FFFFFF" d="M271.703,121.5c-2.05,1.85-4.75,3.1-7.5,3.1c-5.15,0-8.701-2.897-8.701-8.648
		c0-5.9,4.451-8.45,9.301-8.45c2.15,0,4.4,0.45,6.9,1.8v-2.148c0-5.149-2.75-6.25-5.6-6.25c-2.55,0-5.701,1.449-7.601,2.75l-1-3
		c2.05-1.301,5.45-2.801,8.95-2.801c3.65,0,8.5,1.601,8.5,8.852V124h-3.25L271.703,121.5L271.703,121.5z M271.703,117.6v-4.949
		c-1.65-1.102-4.35-2.102-6.55-2.102c-3.45,0-6.4,1.7-6.4,5.4c0,3.351,2.1,5.601,5.8,5.601
		C267.653,121.55,270.153,119.5,271.703,117.6z"/>
	<path display="inline" fill="#FFFFFF" d="M279.453,98.448h3.601l6.2,17.401c0.3,0.898,0.6,1.698,0.9,2.698c0.3-1,0.6-1.8,0.9-2.698
		l6.051-17.401h3.5L291.253,124h-2.45L279.453,98.448z"/>
	<path display="inline" fill="#FFFFFF" d="M305.352,111.199c0-8.501,4.55-13.352,11.101-13.352c5.45,0,10.101,3.75,10.101,12.352
		c0,0.55,0,1.35-0.1,2.449h-17.401c0.6,5.201,3.2,8.701,7.551,8.701c1.85,0,3.8-0.552,5.75-2l1.9,2.351
		c-2,1.649-4.851,2.899-7.8,2.899C309.552,124.6,305.352,118.398,305.352,111.199z M323.003,109.499c-0.05-6.899-3.851-8.5-6.55-8.5
		c-4.101,0-7.201,2.7-7.5,8.5H323.003z"/>
	<path display="inline" fill="#FFFFFF" d="M346.402,118.75V101.6h-4.351V98.45h4.351v-8.802l3.5-1.75V98.45h6.5v3.149h-6.5v15.65
		c0,2.2,0.3,4.05,2.75,4.05c1.7,0,2.9-0.85,3.851-1.5l-0.4,3.65c-1.3,0.7-2.7,1.149-4.65,1.149
		C347.802,124.6,346.402,122.1,346.402,118.75z"/>
	<path display="inline" fill="#FFFFFF" d="M361.251,111.249c0-8.399,4.4-13.399,10.951-13.399c6.551,0,10.951,4.851,10.951,13.352
		c0,8.398-4.4,13.398-10.951,13.398C365.651,124.6,361.251,119.75,361.251,111.249z M379.502,111.199c0-6.352-2.55-10.2-7.301-10.2
		c-4.75,0-7.3,3.601-7.3,10.25c0,6.351,2.55,10.201,7.3,10.201C376.852,121.45,379.502,117.6,379.502,111.199z"/>
	<path display="inline" fill="#FFFFFF" d="M399.4,98.448h3.5l4.2,18.401l0.6,2.799c0.25-1,0.5-1.851,0.75-2.799l5.35-18.401h2.4
		l5.35,18.401c0.3,1,0.55,2,0.852,3.049c0.198-1.049,0.448-2.049,0.648-3.049l4.05-18.401h3.5L424.3,124h-3.148l-5.102-15.451
		c-0.25-0.8-0.7-2.1-1.1-3.449c-0.4,1.352-0.8,2.602-1.05,3.399l-5,15.501h-3.2L399.4,98.448z"/>
	<path display="inline" fill="#FFFFFF" d="M434.85,111.249c0-8.399,4.4-13.399,10.951-13.399s10.951,4.851,10.951,13.352
		c0,8.398-4.4,13.398-10.951,13.398S434.85,119.75,434.85,111.249z M453.102,111.199c0-6.352-2.55-10.2-7.301-10.2
		c-4.75,0-7.3,3.601-7.3,10.25c0,6.351,2.55,10.201,7.3,10.201C450.451,121.45,453.102,117.6,453.102,111.199z"/>
	<path display="inline" fill="#FFFFFF" d="M464,98.448h3.5v3.601c1.85-2.75,4.5-4.199,6.851-4.199c1.2,0,2.4,0.398,3.2,1.049
		l-0.55,3.4c-0.649-0.4-1.649-0.949-3.3-0.949c-2.3,0-6.2,1.899-6.2,8.199V124H464V98.448z"/>
	<path display="inline" fill="#FFFFFF" d="M499.25,124l-8.2-16.201l-4.25,4.551V124h-3.5V89.598l3.5-1.699V108.2l9.051-9.751h4.052
		l-6.4,6.801L503.1,124H499.25z"/>
	<path display="inline" fill="#FFFFFF" d="M535.049,121.5c-2.05,1.85-4.75,3.1-7.5,3.1c-5.148,0-8.701-2.897-8.701-8.648
		c0-5.9,4.451-8.45,9.303-8.45c2.148,0,4.398,0.45,6.898,1.8v-2.148c0-5.149-2.75-6.25-5.6-6.25c-2.551,0-5.701,1.449-7.603,2.75
		l-1-3c2.052-1.301,5.45-2.801,8.95-2.801c3.65,0,8.5,1.601,8.5,8.852V124h-3.25L535.049,121.5L535.049,121.5z M535.049,117.6
		v-4.949c-1.647-1.102-4.35-2.102-6.55-2.102c-3.45,0-6.4,1.7-6.4,5.4c0,3.351,2.103,5.601,5.802,5.601
		C530.999,121.55,533.499,119.5,535.049,117.6z"/>
	<path display="inline" fill="#FFFFFF" d="M547.648,118.75V101.6h-4.353V98.45h4.353v-8.802l3.5-1.75V98.45h6.5v3.149h-6.5v15.65
		c0,2.2,0.3,4.05,2.75,4.05c1.698,0,2.898-0.85,3.851-1.5l-0.4,3.65c-1.3,0.7-2.698,1.149-4.647,1.149
		C549.049,124.6,547.648,122.1,547.648,118.75z"/>
	<path display="inline" fill="#FFFFFF" d="M576.248,89.548l3.5-1.649v13.4c1.55-2.301,3.9-3.449,6.6-3.449
		c6.25,0,9.15,3.549,9.15,12V124h-3.5v-15.602c0-5.399-2.55-7.399-5.95-7.399c-3.601,0-6.3,1.75-6.3,7.3V124h-3.5V89.548z"/>
	<path display="inline" fill="#FFFFFF" d="M602.497,111.249c0-8.399,4.4-13.399,10.95-13.399c6.551,0,10.951,4.851,10.951,13.352
		c0,8.398-4.4,13.398-10.951,13.398S602.497,119.75,602.497,111.249z M620.748,111.199c0-6.352-2.55-10.2-7.301-10.2
		c-4.75,0-7.302,3.601-7.302,10.25c0,6.351,2.552,10.201,7.302,10.201C618.098,121.45,620.748,117.6,620.748,111.199z"/>
	<path display="inline" fill="#FFFFFF" d="M661.549,108.35c0-3.201-0.75-7.351-5.551-7.351c-3.85,0-5.9,3.399-5.9,7.351V124h-3.5
		v-15.65c0-3.201-0.75-7.351-5.551-7.351c-3.949,0-5.9,3-5.9,6.95V124h-3.5V98.448h3.5v2.5c1.701-2,4.15-3.101,6.951-3.101
		c2.699,0,5.45,1.449,6.9,3.899c1.4-2.149,4-3.899,7.301-3.899c4.949,0,8.75,3.551,8.75,9.149V124h-3.5V108.35L661.549,108.35z"/>
	<path display="inline" fill="#FFFFFF" d="M672.046,111.199c0-8.501,4.55-13.352,11.103-13.352c5.449,0,10.102,3.75,10.102,12.352
		c0,0.55,0,1.35-0.101,2.449h-17.401c0.6,5.201,3.2,8.701,7.551,8.701c1.852,0,3.801-0.552,5.75-2l1.9,2.351
		c-2,1.649-4.852,2.899-7.801,2.899C676.246,124.6,672.046,118.398,672.046,111.199z M689.697,109.499
		c-0.051-6.899-3.853-8.5-6.551-8.5c-4.102,0-7.2,2.7-7.5,8.5H689.697z"/>
	<path display="inline" fill="#FFFFFF" d="M713.096,118.75V101.6h-4.35V98.45h4.35v-8.802l3.5-1.75V98.45h6.5v3.149h-6.5v15.65
		c0,2.2,0.303,4.05,2.75,4.05c1.701,0,2.9-0.85,3.854-1.5l-0.4,3.65c-1.301,0.7-2.701,1.149-4.648,1.149
		C714.496,124.6,713.096,122.1,713.096,118.75z"/>
	<path display="inline" fill="#FFFFFF" d="M727.945,111.249c0-8.399,4.398-13.399,10.951-13.399c6.549,0,10.947,4.851,10.947,13.352
		c0,8.398-4.398,13.398-10.947,13.398C732.346,124.6,727.945,119.75,727.945,111.249z M746.195,111.199
		c0-6.352-2.549-10.2-7.299-10.2c-4.754,0-7.303,3.601-7.303,10.25c0,6.351,2.549,10.201,7.303,10.201
		C743.547,121.45,746.195,117.6,746.195,111.199z"/>
	<path display="inline" fill="#FFFFFF" d="M755.344,111.199c0-8.4,4.051-13.352,10.551-13.352c3.15,0,5.25,1.148,6.803,2.399V89.646
		l3.5-1.75V124h-3.5v-2.2c-1.553,1.55-3.602,2.8-6.803,2.8C759.344,124.6,755.344,119.35,755.344,111.199z M772.695,117.449v-12.75
		c-1.053-1.7-3.15-3.7-6.4-3.7c-4.699,0-7.301,3.649-7.301,10.2c0,5.699,2.801,10.251,7.301,10.251
		C768.846,121.45,771.295,120,772.695,117.449z"/>
	<path display="inline" fill="#FFFFFF" d="M799.895,121.5c-2.049,1.85-4.75,3.1-7.5,3.1c-5.148,0-8.699-2.897-8.699-8.648
		c0-5.9,4.449-8.45,9.301-8.45c2.15,0,4.4,0.45,6.9,1.8v-2.148c0-5.149-2.75-6.25-5.602-6.25c-2.551,0-5.701,1.449-7.602,2.75l-1-3
		c2.051-1.301,5.451-2.801,8.951-2.801c3.648,0,8.5,1.601,8.5,8.852V124h-3.25V121.5L799.895,121.5z M799.895,117.6v-4.949
		c-1.648-1.102-4.35-2.102-6.551-2.102c-3.449,0-6.398,1.7-6.398,5.4c0,3.351,2.102,5.601,5.801,5.601
		C795.846,121.55,798.346,119.5,799.895,117.6z"/>
	<path display="inline" fill="#FFFFFF" d="M816.996,123.2l-9.354-24.752h3.553l6.45,18.151c0.3,0.85,0.55,1.698,0.851,2.6l0.899-2.6
		l6.55-18.151h3.752L816.646,133.7h-3.451L816.996,123.2z"/>
</g>
<path opacity="0.25" fill="#FFFFFF" enable-background="new    " d="M6,145.75c0,2.348-1.343,4.25-3,4.25l0,0
	c-1.657,0-3-1.902-3-4.25V4.25C0,1.903,1.343,0,3,0l0,0c1.657,0,3,1.903,3,4.25V145.75z"/>
</svg>
