<?xml version="1.0" encoding="utf-8"?>
<!-- Generator: Adobe Illustrator 16.0.0, SVG Export Plug-In . SVG Version: 6.00 Build 0)  -->
<!DOCTYPE svg PUBLIC "-//W3C//DTD SVG 1.1//EN" "http://www.w3.org/Graphics/SVG/1.1/DTD/svg11.dtd">
<svg version="1.1" id="Ebene_1" xmlns="http://www.w3.org/2000/svg" xmlns:xlink="http://www.w3.org/1999/xlink" x="0px" y="0px"
	 width="685px" height="500px" viewBox="0 0 685 500" enable-background="new 0 0 685 500" xml:space="preserve">
<g>
	<path fill="#5263A4" d="M116.552,252.639c0,0.545,0.133,0.747,0.404,0.608c0.266-0.134,0.405-0.063,0.405,0.202l-0.809,0.81h-0.405
		c-1.354-0.538-2.771-0.607-4.25-0.202c-1.486,0.404-2.903,0.746-4.25,1.012c-1.082,0.271-2.094,0.543-3.036,0.809
		c-0.949,0.272-1.961,0.545-3.036,0.81c-1.354,0.273-2.498,0.545-3.441,0.811c-0.949,0.271-1.96,0.544-3.036,0.81
		c-0.271,1.353-1.214,1.758-2.833,1.214l-0.81,0.404c-0.81,1.082-1.689,1.821-2.631,2.227c-0.949,0.405-1.822,1.012-2.631,1.821
		c0.538,0.271,1.075,0.203,1.619-0.202c0.538-0.404,1.075-0.335,1.619,0.202c-0.544,0.545-1.082,0.81-1.619,0.81
		c-0.544,0-1.082,0.272-1.619,0.811c1.075,0.543,1.075,0.809,0,0.809H84.98c0,0.544-0.069,0.879-0.202,1.013
		c-0.139,0.139-0.203,0.474-0.203,1.012c-0.544,1.891-1.353,2.973-2.428,3.238c-0.544,0.271-1.151,0.606-1.821,1.012
		c-0.677,0.404-1.284,0.739-1.822,1.012c0.538,0,1.145-0.07,1.822-0.202c0.67-0.14,1.277,0.335,1.821,1.416
		c-0.544,0.266-0.949,0.405-1.215,0.405c-0.271,0-0.543,0.132-0.809,0.405c-1.082,1.075-2.163,1.479-3.238,1.213
		c-0.543-0.271-1.081-0.201-1.619,0.203c-0.544,0.405-1.082,0.74-1.619,1.012c-1.354,1.075-3.105,2.023-5.262,2.833
		c-0.272,0.266-1.214,0.943-2.833,2.024c-0.544,0.537-1.214,0.942-2.024,1.214c-0.81,0.266-1.619,0.671-2.428,1.215
		c-1.619,0.537-3.175,1.417-4.655,2.631c-1.486,1.214-2.903,2.359-4.25,3.44c-0.544,0.538-0.949,0.81-1.214,0.81
		c-0.272,0-0.677,0.266-1.215,0.81c-0.544,0.266-0.949,0.405-1.214,0.405c-0.271,0-0.405,0.404-0.405,1.214
		c0,0.266-0.404,0.404-1.214,0.404c-0.544,0.538-1.151,0.874-1.822,1.012c-0.676,0.134-1.284,0.608-1.821,1.417
		c-1.082,0.267-2.093,0.538-3.036,0.81c-0.949,0.266-1.822,0.538-2.631,0.81c-0.544,0.266-1.151,0.405-1.821,0.405
		c-0.677,0-1.284,0.405-1.821,1.214c-1.62,0.538-3.175,1.348-4.655,2.429c-1.486,1.075-3.174,1.886-5.06,2.429
		c-0.543,0-1.081,0.063-1.619,0.203c-0.544,0.132-1.082-0.343-1.619-1.418c-0.272-1.081-1.214-1.353-2.833-0.809
		c-0.543,0-0.879,0.062-1.012,0.202c-0.139,0.133-0.474,0.203-1.012,0.203c-2.163,0.537-3.643-0.273-4.453-2.43
		c0-0.543-0.069-0.948-0.202-1.214c-0.14-0.272-0.203-0.678-0.203-1.215c-0.544-1.353-1.215-2.296-2.024-2.833
		c-0.81-0.544-1.619-1.284-2.429-2.227c-0.81-0.949-1.48-1.821-2.024-2.631c-0.81-1.354-1.347-2.833-1.619-4.453
		c-0.266-1.618-0.67-3.104-1.214-4.451v-1.215c0.544-0.81,0.747-1.688,0.607-2.631c-0.133-0.948-0.063-1.822,0.203-2.631
		c0-2.966,0.202-6.002,0.607-9.107c0.405-3.1,0.879-6.135,1.417-9.107c0.81-4.585,1.683-9.038,2.631-13.357
		c0.942-4.314,1.954-8.766,3.036-13.358c1.347-4.585,2.562-9.038,3.643-13.357c1.075-4.313,2.157-8.766,3.238-13.357
		c1.347-5.395,2.562-10.657,3.643-15.786c1.075-5.123,2.289-10.385,3.643-15.786c0.538-2.694,1.145-5.325,1.821-7.893
		c0.67-2.562,1.417-5.193,2.227-7.893c1.347-5.395,2.763-10.859,4.25-16.393c1.48-5.528,2.897-10.992,4.25-16.394
		c1.347-4.857,2.561-9.645,3.643-14.369c1.075-4.718,2.428-9.512,4.047-14.369c2.156-6.205,3.978-12.478,5.464-18.822
		c1.48-6.337,2.896-12.75,4.25-19.227c1.619-5.667,3.643-11.466,6.071-17.405c0.266-0.538,0.405-0.942,0.405-1.214
		c0-0.266,0.132-0.671,0.405-1.214c0.538-1.347,0.942-2.024,1.214-2.024c1.347-1.347,2.764-2.561,4.25-3.643
		c1.48-1.075,3.169-1.215,5.06-0.405c1.347,0.809,2.694,1.081,4.048,0.809c0.538,0,1.075,0.203,1.619,0.607
		c0.538,0.405,1.075,0.746,1.619,1.012c1.347,0.544,2.429,1.354,3.238,2.429c0.81,0.81,2.024,1.486,3.643,2.024
		c2.429,0.809,3.643,2.833,3.643,6.071c0.266,2.164,0.468,4.187,0.607,6.072c0.132,1.891,0.063,3.915-0.203,6.071
		c-0.272,4.319-1.082,8.905-2.429,13.762c-0.544,1.891-0.879,3.712-1.012,5.464c-0.139,1.758-0.475,3.58-1.012,5.464
		c-0.544,1.619-1.012,3.238-1.417,4.857c-0.405,1.619-0.879,3.238-1.417,4.857l-2.428,7.286c-1.62,6.748-3.51,13.357-5.667,19.833
		c-2.163,6.477-4.048,13.091-5.667,19.833c-1.082,3.782-2.024,7.425-2.833,10.929c-0.81,3.51-1.619,7.152-2.429,10.928
		c-1.353,4.592-2.498,9.044-3.44,13.358c-0.949,4.319-2.093,8.771-3.44,13.357c-0.544,2.163-1.012,4.389-1.417,6.679
		c-0.405,2.296-0.879,4.522-1.417,6.679c-1.082,4.592-2.094,9.044-3.036,13.357c-0.949,4.32-2.094,8.772-3.44,13.357
		c-1.082,4.319-1.961,8.57-2.631,12.75c-0.676,4.187-1.688,8.437-3.036,12.751c-0.81,2.972-1.556,5.938-2.226,8.904
		c-0.677,2.973-1.284,5.939-1.822,8.904c0,0.81,0.405,1.215,1.214,1.215c1.075,0,2.087-0.202,3.036-0.606
		c0.942-0.405,1.954-0.874,3.036-1.417c2.966-1.075,5.869-2.156,8.703-3.238c2.833-1.075,5.729-2.29,8.702-3.643
		c4.585-2.157,9.24-4.182,13.965-6.072c4.718-1.884,9.373-3.504,13.964-4.856c2.966-0.81,5.73-1.417,8.298-1.822
		c2.562-0.405,5.325-0.873,8.297-1.417c4.585-0.266,8.905,0.544,12.953,2.429l0.404,0.405c-0.544,0.543-1.214,0.81-2.023,0.81
		C117.767,251.83,117.09,252.102,116.552,252.639z M80.528,270.449c0.538,0,1.347-0.266,2.428-0.81
		c-0.543,0-1.012-0.062-1.417-0.202C81.135,269.304,80.793,269.64,80.528,270.449z M83.766,266.806c-0.272,0-0.405,0.14-0.405,0.405
		v0.81l0.809-0.404C84.17,267.079,84.031,266.806,83.766,266.806z"/>
	<path fill="#5263A4" d="M139.219,144.162c3.238-0.266,6.337,0.474,9.31,2.226c2.966,1.758,5.932,3.845,8.905,6.274
		c1.884,1.354,3.371,2.833,4.452,4.453c1.075,1.619,2.157,3.377,3.239,5.262c0.809,2.163,1.012,4.117,0.607,5.87
		c-0.405,1.758-0.879,3.44-1.417,5.06c-1.354,3.782-3.105,7.69-5.262,11.738c-1.082,2.163-2.163,4.39-3.238,6.679
		c-1.082,2.296-2.295,4.522-3.643,6.679c-1.081,2.429-2.163,4.997-3.238,7.691c-1.082,2.7-2.163,5.262-3.238,7.69
		c-1.619,4.32-3.175,8.367-4.655,12.143c-1.486,3.782-2.903,7.83-4.25,12.143c-1.619,4.857-3.308,9.512-5.06,13.964
		c-1.759,4.453-3.58,8.975-5.464,13.561c-1.354,2.699-2.631,5.331-3.846,7.893c-1.214,2.562-2.365,5.192-3.44,7.893
		c0,0.266-0.271,0.67-0.809,1.215c-1.619,0.266-2.903,1.012-3.846,2.227c-0.949,1.213-2.094,2.225-3.44,3.035
		c-2.973,1.619-5.534,0.81-7.691-2.429c-1.075-1.619-2.833-2.429-5.262-2.429c-2.429-0.544-3.909-2.567-4.453-6.072
		c0.272-1.081,0.544-2.162,0.81-3.237c0.271-1.075,0.544-2.289,0.809-3.644c0-1.347-0.133-2.156-0.405-2.428
		c-1.884-1.619-2.896-3.504-3.036-5.667c-0.133-2.156-0.203-4.313-0.203-6.476c0-2.157,0.342-4.251,1.012-6.274
		c0.677-2.024,1.284-4.111,1.822-6.274c2.7-9.714,5.401-19.429,8.095-29.143s6.071-19.157,10.119-28.333
		c2.429-5.395,4.787-10.859,7.083-16.394c2.289-5.527,4.516-10.992,6.679-16.393c0.265-0.538,0.67-1.619,1.214-3.238
		c1.348-2.157,2.764-3.707,4.25-4.655C133.21,143.827,135.708,143.624,139.219,144.162z M164.314,127.971
		c-0.272,0-0.405,0.139-0.405,0.405c-2.163-0.538-3.377-0.74-3.643-0.607c-0.271,0.139-0.404,0.879-0.404,2.226
		c-0.544,0-1.214-0.405-2.024-1.214c-0.544-0.538-1.214-1.012-2.024-1.417c-0.81-0.404-1.619-0.873-2.429-1.417
		c-0.544-0.265-0.809-0.202-0.809,0.203s-0.272,0.607-0.81,0.607c-1.082-1.619-2.024-2.834-2.833-3.643
		c-1.354-1.348-2.024-2.694-2.024-4.048c0-1.347,0.266-2.694,0.81-4.047c0.266-2.966,0.67-5.123,1.214-6.477
		c0.538-1.347,1.48-3.504,2.833-6.477c0,1.354,0.203,1.822,0.607,1.417c0.405-0.405,0.873-1.145,1.417-2.227
		c0.538-1.075,1.075-2.358,1.619-3.845c0.538-1.48,1.075-2.492,1.619-3.036c0.538-0.537,0.74-0.942,0.607-1.214
		c-0.139-0.266-0.07-0.538,0.202-0.809c1.619-2.429,3.776-3.372,6.476-2.834c0.81,0,1.683,0.07,2.631,0.203
		c0.942,0.139,1.822,0.202,2.631,0.202c1.619,0.272,3.099,0.544,4.452,0.81c1.348,0.271,2.694,0.809,4.048,1.619
		c0.538,0.543,1.278,0.879,2.227,1.012c0.942,0.139,1.682,0.475,2.226,1.012c2.694,1.619,4.858,3.308,6.477,5.06
		c1.619,1.758,2.694,3.845,3.238,6.273c0.266,1.619-0.405,3.238-2.024,4.857c-1.354,1.081-2.295,1.417-2.833,1.012
		c-0.544-0.405-1.891-0.063-4.048,1.012c-0.272,0.271-0.474,0.405-0.607,0.405c-0.139,0-0.341,0.139-0.607,0.404
		c-2.429,0.272-4.048,1.486-4.857,3.643c-1.619,2.973-4.32,5.262-8.095,6.881c-0.272,0-0.405,0.07-0.405,0.203
		c0,0.139-0.139,0.202-0.405,0.202C166.199,124.6,164.852,125.814,164.314,127.971z"/>
	<path fill="#5263A4" d="M335.932,193.543c1.619,0.81,1.752,1.891,0.404,3.238l-0.404,0.81c-2.701,2.972-5.332,5.806-7.893,8.5
		c-2.568,2.7-5.736,4.996-9.512,6.881c-1.891,1.082-4.048,1.619-6.477,1.619c-1.619,0.271-3.643,0.544-6.071,0.809
		c-2.429,0.272-4.857,0.475-7.286,0.607c-2.429,0.139-4.794-0.063-7.083-0.607c-2.296-0.538-4.117-1.479-5.465-2.833
		c-1.081-1.075-2.163-1.619-3.238-1.619c-1.353-0.265-2.568-0.74-3.643-1.417c-1.082-0.67-2.163-1.417-3.238-2.227
		c-1.891-1.884-3.51-3.099-4.857-3.643c-0.809,0-1.417-0.335-1.821-1.012c-0.405-0.67-0.879-1.278-1.417-1.822
		c-1.354-1.347-2.295-1.347-2.833,0c-2.164,4.32-4.453,8.368-6.881,12.143c-2.429,3.782-4.725,7.69-6.881,11.738
		c-7.83,15.116-17.272,30.092-28.334,44.929c-1.891,2.163-3.58,4.452-5.06,6.882c-1.486,2.428-3.308,4.717-5.464,6.881
		c-1.891,2.156-3.845,3.979-5.869,5.464c-2.023,1.479-4.25,2.896-6.679,4.25c-0.272,0-0.474,0.062-0.607,0.202
		c-0.14,0.134-0.475,0.203-1.012,0.203c-1.619-0.272-3.238-0.475-4.857-0.607c-1.619-0.139-3.238-0.474-4.857-1.012
		c-2.163-0.811-3.712-2.163-4.655-4.048c-0.949-1.892-1.417-3.915-1.417-6.071c-0.271-1.62-0.404-3.309-0.404-5.06
		c0-1.759,0-3.573,0-5.465c0.266-2.967,0.133-5.933-0.405-8.904c-0.544-2.967-0.949-5.933-1.214-8.905l-1.214-12.144
		c-0.544-5.932-0.879-11.871-1.012-17.81c-0.14-5.932-0.07-12.004,0.202-18.215c0-8.36-0.405-16.861-1.214-25.5
		c-0.272-2.157-0.405-4.383-0.405-6.679c0-2.29-0.139-4.516-0.405-6.679h-0.405v-6.072c0-2.966,0.133-6.071,0.405-9.309
		c0.266-3.238,0.67-6.477,1.214-9.715c0-1.347,0.335-2.562,1.012-3.643c0.67-1.075,1.277-2.157,1.821-3.238
		c0.266-0.265,0.538-0.468,0.81-0.606c0.265-0.133,0.538-0.335,0.81-0.607c3.238-1.348,6.204-1.885,8.904-1.619
		c2.429,0.544,4.858,0.879,7.286,1.012c2.429,0.14,4.655,0.405,6.679,0.81c2.024,0.405,3.775,1.082,5.262,2.024
		c1.48,0.949,2.631,2.498,3.441,4.655c0.266,0.544,0.468,1.012,0.607,1.417c0.133,0.405,0.335,0.879,0.607,1.417
		c2.157,2.429,3.44,5.199,3.845,8.298c0.405,3.105,0.335,6.141-0.202,9.107c-0.272,0.81-0.405,1.891-0.405,3.238
		c0.265,1.891,0.468,3.712,0.607,5.464c0.133,1.758,0.202,3.44,0.202,5.06c0,1.891-0.139,4.187-0.404,6.881
		c-0.272,2.701-0.677,5.604-1.215,8.703c-0.543,3.105-1.081,6.008-1.619,8.703c-0.544,2.701-0.949,4.997-1.214,6.881
		c-0.272,3.782-0.746,7.425-1.417,10.929c-0.677,3.51-1.151,7.153-1.417,10.929c-0.272,3.238-0.405,6.476-0.405,9.714
		s-0.139,6.476-0.405,9.714c0,1.082,0.133,1.758,0.405,2.024c0.538,0.272,0.942,0.139,1.214-0.405
		c0.266-0.538,0.538-0.942,0.81-1.214c4.313-7.014,8.563-13.895,12.75-20.643c4.181-6.742,8.298-13.623,12.346-20.643
		c2.157-3.504,4.048-6.945,5.667-10.322c1.619-3.371,3.371-6.679,5.262-9.917c2.157-3.776,4.718-7.147,7.69-10.119
		c2.966-2.967,6.337-5.667,10.119-8.096c2.157-1.347,4.516-1.417,7.083-0.203c2.562,1.215,4.111,3.036,4.655,5.464
		c0.538,2.163,1.145,4.187,1.821,6.072c0.67,1.891,1.145,3.915,1.417,6.071c0.266,2.701,1.214,5.262,2.833,7.691
		c0.81,2.163,2.694,3.51,5.667,4.047c3.238,0.81,6.204,0.949,8.905,0.405c1.075,0,2.157,0,3.238,0c1.075,0,2.156,0.272,3.238,0.81
		c0.266,0,0.405-0.133,0.405-0.405c1.885-0.81,3.643-1.549,5.262-2.226c1.619-0.67,3.238-1.682,4.857-3.036
		c1.619-1.348,3.238-2.492,4.857-3.44c1.619-0.943,3.238-1.683,4.857-2.227c2.157-0.538,3.846-0.335,5.06,0.607
		c1.215,0.949,2.631,1.688,4.25,2.226c0.265,0.272,0.133,0.948-0.405,2.023C334.312,192.196,334.578,193.006,335.932,193.543z"/>
	<path fill="#5263A4" d="M416.479,199.21c2.967,0,3.776,1.619,2.43,4.857c-0.81,1.354-1.354,2.7-1.62,4.048
		c-0.271,1.353-0.676,2.7-1.213,4.047c-0.545,1.354-1.013,2.499-1.418,3.44c-0.404,0.949-0.879,1.961-1.417,3.036
		c-0.543,1.082-1.081,2.023-1.618,2.833c-0.544,0.81-1.081,1.619-1.619,2.429c-0.544,1.082-1.082,2.093-1.619,3.036
		c-0.544,0.949-1.081,2.093-1.619,3.44c-0.81,1.353-1.619,2.903-2.429,4.655c-0.81,1.758-1.486,3.308-2.023,4.654
		c-0.272,0.544-0.544,1.012-0.81,1.417c-0.271,0.404-0.544,0.879-0.81,1.417c-2.163,2.972-4.319,5.806-6.477,8.5
		c-2.163,2.7-4.188,5.666-6.071,8.904c-1.081,1.354-1.961,2.771-2.631,4.251c-0.677,1.486-1.557,3.035-2.632,4.654
		c-2.162,3.782-4.521,7.286-7.083,10.524c-2.567,3.238-5.332,6.608-8.297,10.119c-1.354,1.884-2.973,3.573-4.858,5.06
		c-1.891,1.48-4.048,2.492-6.476,3.035c-1.082,0.267-1.961,0.74-2.632,1.418c-0.676,0.67-1.416,1.276-2.226,1.82
		c-2.429,1.885-4.857,2.834-7.286,2.834c-0.809-0.272-1.619-0.405-2.428-0.405s-1.619-0.139-2.429-0.404
		c-1.081-0.271-2.093-0.545-3.036-0.81c-0.948-0.272-2.093-0.272-3.44,0c-2.163,0.265-4.452-0.14-6.881-1.215
		c-2.428-1.082-4.857-2.498-7.286-4.25c-2.429-1.758-4.655-3.643-6.679-5.666c-2.023-2.024-3.845-3.713-5.464-5.06
		c-3.238-2.973-5.597-6.414-7.083-10.322c-1.48-3.908-2.492-8.026-3.036-12.346c-0.809-5.932-1.075-11.737-0.809-17.405
		c0.272-5.667,1.082-11.333,2.429-17c2.163-9.715,4.926-19.157,8.298-28.334c3.371-9.17,7.083-18.214,11.131-27.119
		c2.966-6.742,6.274-13.155,9.917-19.227c3.643-6.072,7.488-12.207,11.536-18.417c5.396-8.096,11.467-14.837,18.215-20.239
		c1.075-0.809,2.023-1.682,2.834-2.631c0.809-0.942,1.751-1.821,2.832-2.631c4.858-4.313,9.98-7.69,15.382-10.119
		c1.884-0.809,3.37-1.075,4.452-0.809c2.429,0.544,4.921,0.746,7.488,0.607c2.562-0.133,4.921,0.475,7.083,1.821
		c1.348,0.81,2.764,1.619,4.25,2.429c1.48,0.81,2.765,2.024,3.846,3.643c0.537,1.353,1.277,2.568,2.227,3.643
		c0.942,1.082,1.821,2.295,2.631,3.643c0.81,1.353,1.348,2.7,1.619,4.047c0.266,1.354,0.537,2.7,0.81,4.048
		c0.266,1.619,0.335,3.238,0.202,4.857c-0.14,1.619,0.063,3.238,0.606,4.857c0.267,1.354,0,2.973-0.809,4.857
		c-0.544,1.354-0.879,2.568-1.013,3.643c-0.139,1.082-0.474,2.296-1.012,3.643c0,0.543-0.271,1.081-0.81,1.619
		c-2.163,3.238-4.047,6.477-5.666,9.715s-3.378,6.615-5.262,10.119l-0.81,1.619c-1.082,1.353-2.163,2.701-3.238,4.047
		c-1.082,1.354-1.892,2.973-2.43,4.857c-0.271,1.082-0.809,2.023-1.618,2.833c-0.81,0.81-1.486,1.619-2.023,2.429
		c-2.164,2.701-4.251,5.401-6.274,8.095c-2.024,2.701-4.117,5.401-6.274,8.095c-2.7,2.973-5.262,5.869-7.69,8.703
		s-5.129,5.604-8.095,8.297c-1.354,1.354-2.833,2.499-4.452,3.441c-1.62,0.949-3.239,1.961-4.858,3.036
		c-2.429,1.353-4.724,2.903-6.881,4.654c-2.163,1.758-4.319,3.58-6.476,5.465c-0.544,0.271-0.81,0.474-0.81,0.606
		c0,0.14-0.272,0.203-0.809,0.203c-4.32,0.272-6.616,2.429-6.881,6.477c-0.272,2.972-0.677,5.869-1.214,8.703
		c-0.544,2.833-0.544,5.736,0,8.702c0.266,1.62,0.405,3.238,0.405,4.858c0,1.618,0,3.237,0,4.856c0,2.164,0.405,4.188,1.214,6.072
		v0.404c0.538,0.537,1.347,1.619,2.429,3.238c0.538,0.537,0.809,0.942,0.809,1.214l0.81,0.405v0.404
		c1.884,1.885,3.908,2.023,6.071,0.405c4.049-2.429,8.096-4.928,12.144-7.488c4.048-2.562,7.69-5.73,10.928-9.512
		c1.348-1.348,2.632-2.765,3.846-4.25c1.214-1.48,2.491-2.896,3.846-4.251c1.885-2.156,3.706-4.25,5.464-6.274
		c1.752-2.024,3.573-4.111,5.465-6.273c1.884-1.885,3.705-3.776,5.465-5.667c1.751-1.884,3.439-3.908,5.06-6.071
		c2.428-2.966,4.856-6.002,7.284-9.107c2.43-3.099,4.858-6.274,7.286-9.512c1.075-1.347,2.088-2.764,3.036-4.25
		c0.942-1.48,1.821-2.896,2.632-4.25C413.104,200.02,414.59,199.21,416.479,199.21z M350.099,176.543
		c-0.545,1.891-1.151,3.782-1.821,5.667c-0.677,1.891-1.556,3.782-2.631,5.667c2.156-2.157,4.249-4.181,6.273-6.071
		c2.023-1.885,3.979-3.909,5.869-6.072c3.775-4.585,7.418-9.31,10.928-14.167c3.505-4.858,6.338-9.98,8.501-15.382
		c1.075-2.428,2.156-4.718,3.238-6.881c1.075-2.157,2.023-4.452,2.833-6.881c0.538-1.619,1.075-3.238,1.619-4.857
		c0.537-1.619,0.81-3.238,0.81-4.857h-1.214c-1.354,1.081-2.632,2.093-3.846,3.036c-1.214,0.949-2.365,2.093-3.44,3.44
		c-1.619,1.891-3.036,3.845-4.25,5.869c-1.215,2.024-2.499,3.984-3.846,5.87c-1.354,2.163-2.7,4.187-4.048,6.071
		c-1.354,1.891-2.833,3.915-4.452,6.071c-2.162,2.429-3.643,5.401-4.452,8.905c-0.271,1.354-0.545,2.499-0.81,3.44
		c-0.272,0.949-0.677,1.961-1.215,3.036c-0.544,1.353-1.214,2.701-2.023,4.047C351.312,173.849,350.636,175.196,350.099,176.543z"/>
	<path fill="#5263A4" d="M439.142,286.641c-1.354-0.272-2.631-0.81-3.846-1.62c-1.214-0.81-2.364-1.618-3.439-2.428
		c-1.62-1.354-2.973-2.163-4.048-2.43c-0.811-0.543-1.557-1.081-2.227-1.618c-0.677-0.545-1.283-1.215-1.821-2.023
		c-1.354-1.62-2.365-2.904-3.035-3.846c-0.678-0.942-1.285-1.954-1.822-3.036c-0.538-1.074-1.075-2.359-1.619-3.846
		c-0.537-1.479-1.215-3.573-2.023-6.273c-1.348-3.775-2.631-7.69-3.846-11.738c-1.214-4.048-1.683-8.361-1.417-12.953
		c0-2.694-0.063-5.395-0.202-8.095c-0.133-2.694-0.202-5.395-0.202-8.095c-0.266-2.966-0.336-5.933-0.202-8.905
		c0.14-2.967,0.475-5.933,1.012-8.905c0.81-8.361,2.024-16.861,3.643-25.5c0.81-4.048,1.557-8.026,2.227-11.941
		c0.677-3.908,1.688-7.893,3.036-11.94c0.537-1.619,1.075-3.238,1.618-4.857c0.538-1.619,1.075-3.371,1.62-5.262
		c0.537-2.157,1.214-4.181,2.023-6.071c0.81-1.885,1.479-3.909,2.023-6.072c2.966-9.714,6.204-18.885,9.715-27.524
		c2.157-5.123,4.383-10.252,6.679-15.381c2.289-5.123,4.787-10.119,7.488-14.977c2.157-4.048,4.452-8.095,6.881-12.143
		s4.99-7.956,7.69-11.738c3.504-4.857,6.742-9.714,9.715-14.572c1.347-2.157,2.833-4.111,4.452-5.869
		c1.619-1.752,3.1-3.574,4.452-5.464c1.348-1.885,2.764-3.643,4.25-5.262c1.48-1.619,2.896-3.238,4.25-4.857
		c1.348-2.967,3.1-4.453,5.263-4.453c0.537,0,0.941-0.132,1.215-0.405c0.265-0.265,0.67-0.538,1.213-0.809
		c3.505-2.429,7.146-3.643,10.93-3.643c4.312,0,7.551,1.354,9.714,4.048c0.538,0.809,1.075,1.486,1.619,2.023
		c0.537,0.544,1.075,1.215,1.619,2.024c1.619,2.973,2.834,6.008,3.643,9.107c0.81,3.105,0.671,6.546-0.404,10.322
		c-0.81,3.238-1.556,6.546-2.226,9.917c-0.678,3.377-1.557,6.546-2.632,9.512c-1.081,2.972-2.093,5.667-3.036,8.095
		c-0.948,2.429-1.96,4.997-3.035,7.691c-0.544,1.353-1.081,2.631-1.619,3.845c-0.544,1.215-1.081,2.499-1.619,3.846
		c-1.082,3.238-2.429,6.343-4.047,9.31c-1.62,2.972-3.378,5.939-5.263,8.905c-0.544,1.082-1.082,2.093-1.619,3.036
		c-0.544,0.949-1.081,2.093-1.619,3.44c-0.543,1.619-1.354,2.428-2.429,2.428c-1.081,0-1.891,0.81-2.428,2.429
		c-0.272,2.163-0.949,4.117-2.024,5.87c-1.082,1.758-2.163,3.58-3.238,5.464c-2.163,4.32-4.048,8.5-5.666,12.548
		c-1.082,2.701-2.095,5.262-3.036,7.691c-0.948,2.428-2.094,4.725-3.44,6.881c-1.354,2.163-2.567,4.32-3.643,6.477
		c-1.082,2.163-2.163,4.319-3.238,6.476c-1.62,2.973-3.238,6.072-4.857,9.31c-1.62,3.238-3.378,6.477-5.263,9.714
		c-0.544,1.082-1.082,2.163-1.619,3.238c-0.544,1.082-1.081,2.024-1.619,2.833c-2.163,3.782-4.25,7.488-6.273,11.131
		c-2.024,3.643-4.389,7.083-7.084,10.322c-0.271,0.544-0.809,1.214-1.618,2.024c-1.62,1.354-2.903,2.833-3.846,4.453
		c-0.948,1.619-1.688,3.51-2.226,5.667c-0.81,3.238-1.284,6.477-1.418,9.715c-0.139,3.238-0.341,6.476-0.606,9.714
		c0,1.354-0.07,2.568-0.202,3.643c-0.14,1.082-0.069,2.296,0.202,3.643c1.347,8.905,3.908,16.734,7.69,23.477
		c1.075,2.163,2.967,3.643,5.667,4.451h1.214c2.157,1.082,4.048,1.354,5.667,0.811c1.619-0.537,3.238-1.48,4.857-2.834
		c1.885-0.81,3.908-2.024,6.071-3.643c2.429-2.156,4.718-4.585,6.881-7.286c2.157-2.428,4.048-4.92,5.667-7.488
		c1.619-2.561,3.371-5.192,5.262-7.893c1.348-1.885,2.562-3.909,3.644-6.071c1.075-2.157,2.156-4.314,3.238-6.477
		c0.537-1.075,1.075-2.087,1.618-3.036c0.538-0.943,1.215-1.683,2.024-2.227c1.618-2.428,2.833-4.857,3.643-7.286
		c0.811-1.885,1.619-3.706,2.429-5.464c0.81-1.752,1.885-3.301,3.238-4.655l0.81-1.619c1.075-2.157,2.358-4.181,3.845-6.071
		c1.48-1.885,2.896-3.909,4.251-6.072c3.504-4.313,7.146-7.823,10.928-10.524c1.62-1.619,2.695-2.023,3.239-1.214
		c0.537,0.544,0.809,2.024,0.809,4.453c-0.809,2.163-1.688,4.117-2.63,5.869c-0.949,1.759-1.961,3.713-3.036,5.87
		c-1.62,3.782-3.378,7.488-5.263,11.131c-1.891,3.643-3.51,7.355-4.856,11.131c-1.082,3.238-2.163,6.273-3.238,9.107
		c-1.081,2.833-2.43,5.736-4.048,8.703v0.404c-0.544,2.973-1.486,5.736-2.833,8.298c-1.354,2.568-2.833,5.06-4.453,7.488
		c-1.081,1.353-2.093,2.771-3.036,4.25c-0.948,1.486-1.96,2.902-3.035,4.25c-0.544,0.81-1.081,1.486-1.619,2.023
		c-0.544,0.545-1.082,1.082-1.619,1.62c-1.081,2.7-2.429,4.996-4.048,6.881c-1.619,1.891-3.51,3.781-5.666,5.666
		c-1.619,1.348-3.176,2.632-4.655,3.846c-1.486,1.214-3.175,2.491-5.06,3.846c-4.857,2.966-9.986,4.585-15.381,4.856
		c-2.163,0.538-4.39,0.607-6.68,0.203C443.93,287.247,441.57,286.906,439.142,286.641z M500.262,40.541
		c-2.973,4.591-5.736,9.107-8.298,13.56c-2.567,4.452-5.06,8.974-7.487,13.56c-1.62,2.973-3.176,6.008-4.655,9.107
		c-1.486,3.105-3.308,6.008-5.464,8.703c-3.783,4.857-6.477,10.391-8.096,16.595c-0.545,2.701-1.215,5.262-2.023,7.691
		c-0.811,2.428-2.024,4.857-3.644,7.286c-1.354,1.354-2.163,2.568-2.429,3.643c-0.81,1.891-1.556,3.643-2.227,5.262
		c-0.677,1.619-1.012,3.51-1.012,5.667c-0.544,2.701-1.082,5.129-1.619,7.286c-0.544,1.619-1.081,3.238-1.619,4.857
		c-0.543,1.619-1.081,3.238-1.618,4.857c0,0.544-0.14,1.082-0.405,1.619c-0.272,0.544-0.14,1.082,0.405,1.619
		c1.347-0.809,2.428-2.428,3.237-4.857c0.266-0.538,0.405-0.943,0.405-1.214c0-0.266,0.132-0.538,0.404-0.81
		c1.075-0.81,1.821-1.752,2.226-2.833c0.405-1.075,0.874-2.289,1.417-3.643c0-1.075,0.538-2.429,1.619-4.048
		c2.694-3.775,4.858-8.228,6.477-13.357l1.215-2.429c2.966-5.123,5.666-10.455,8.095-15.988c2.429-5.528,4.99-11.131,7.69-16.798
		c1.347-2.694,2.562-5.325,3.644-7.893c1.075-2.562,2.289-5.326,3.643-8.298c0.538-0.81,0.942-1.48,1.215-2.024
		c0.266-0.538,0.537-1.075,0.809-1.619c0.538-0.81,1.013-1.619,1.418-2.429c0.403-0.809,0.738-1.751,1.012-2.833
		c0.265-1.347,0.67-2.631,1.213-3.845c0.538-1.214,1.075-2.359,1.62-3.441c0.81-2.428,1.682-4.718,2.631-6.881
		c0.942-2.157,1.683-4.452,2.227-6.881C501.742,39.466,501.071,39.731,500.262,40.541z"/>
	<path fill="#5263A4" d="M582.023,209.734c-1.081,1.353-1.758,3.105-2.023,5.262c0,1.082-0.271,2.093-0.81,3.036
		c-0.543,0.949-1.081,1.822-1.618,2.631c-1.62,2.701-3.308,5.262-5.06,7.691c-1.759,2.428-3.441,4.857-5.06,7.286
		c-1.354,1.619-2.568,3.238-3.644,4.857c-1.081,1.619-2.162,3.377-3.237,5.262c-2.43,3.782-5.263,7.02-8.501,9.715
		c-2.163,2.162-3.782,4.319-4.856,6.476c-1.083,1.892-2.568,3.51-4.453,4.856c-0.81,0.545-1.689,1.082-2.631,1.62
		c-0.948,0.543-1.821,1.214-2.632,2.023c-1.618,1.354-3.308,2.567-5.06,3.643c-1.758,1.075-3.579,2.157-5.464,3.238
		c-1.354,0.81-2.833,1.278-4.452,1.417c-1.619,0.133-3.238,0.063-4.857-0.202c-2.429-0.545-4.794-1.215-7.083-2.023
		c-2.296-0.81-4.39-2.296-6.274-4.453l-5.263-5.263c-4.047-3.237-6.336-7.551-6.881-12.952c-0.537-5.395,0-10.384,1.62-14.976
		c0.81-4.048,1.619-8.096,2.428-12.143c0.81-4.048,1.758-8.095,2.833-12.143c2.695-11.599,7.015-23.337,12.954-35.215
		c1.347-2.966,2.63-5.8,3.845-8.5c1.215-2.694,2.491-5.527,3.845-8.5c1.348-2.966,2.694-6.002,4.048-9.107
		c1.348-3.099,2.833-6.135,4.453-9.107l9.714-17c1.347-1.885,2.765-3.44,4.25-4.655c1.479-1.214,3.036-2.492,4.655-3.845
		c0-0.266,0.266-0.405,0.809-0.405c2.157,0.272,4.111,0.342,5.87,0.203c1.751-0.133,3.706,0.202,5.869,1.012l1.215,1.214
		c1.884,2.7,2.833,5.667,2.833,8.905c0,1.354,0.132,2.295,0.404,2.833c0.81,0.81,1.214,1.689,1.214,2.631
		c0,0.949-0.139,1.822-0.404,2.631c-0.544,1.354-1.012,2.568-1.417,3.643c-0.405,1.082-0.879,2.163-1.417,3.238
		c-1.353,3.51-2.63,6.881-3.845,10.12s-2.498,6.477-3.845,9.714l-2.43,6.071c-1.081,2.429-2.093,4.927-3.035,7.488
		c-0.949,2.568-2.094,5.06-3.44,7.489c-1.082,2.163-2.227,4.319-3.44,6.476c-1.215,2.163-2.227,4.319-3.036,6.476
		c-0.81,2.163-1.688,4.389-2.631,6.679c-0.948,2.296-1.96,4.522-3.035,6.679c-1.892,4.048-3.441,8.096-4.656,12.143
		c-1.213,4.048-2.63,8.096-4.249,12.143c-0.544,1.354-1.082,3.377-1.619,6.072c-0.544,1.891-0.475,3.643,0.202,5.262
		c0.67,1.619,1.55,3.238,2.631,4.858c0.811,0.809,1.619,0.677,2.429-0.405l10.929-10.929c2.694-3.239,5.193-6.609,7.488-10.12
		c2.29-3.503,4.516-6.881,6.679-10.119c1.885-2.694,3.644-5.395,5.262-8.095c1.619-2.694,3.1-5.395,4.453-8.095
		c1.347-2.966,2.896-5.8,4.654-8.5c1.752-2.694,3.441-5.528,5.06-8.5c1.347-2.429,2.694-4.858,4.048-7.286
		c1.347-2.429,2.562-4.857,3.643-7.286c1.886-4.857,4.313-9.31,7.286-13.357c1.347-2.694,2.29-5.667,2.833-8.905
		c0-1.885,0.134-3.643,0.405-5.262c0.266-1.619,0.67-3.371,1.215-5.262c0.537-1.619,0.941-3.301,1.214-5.06
		c0.266-1.751,0.266-3.44,0-5.06c-0.272-2.157,0.133-4.181,1.214-6.072c1.075-1.884,2.29-3.643,3.644-5.262
		c1.075-1.347,2.562-1.955,4.452-1.822c1.885,0.14,3.644,0.747,5.262,1.822c3.776,2.163,6.881,5.534,9.31,10.12
		c0,0.271,0.267,0.676,0.81,1.214c2.157,2.163,3.302,4.592,3.441,7.286c0.132,2.7,0.467,5.534,1.012,8.5
		c0.266,2.972,0.266,5.806,0,8.5c-0.271,0.81-0.342,1.619-0.203,2.428c0.133,0.81,0.203,1.619,0.203,2.429
		c0,2.973-0.14,6.071-0.405,9.31c-0.271,3.238-0.404,6.344-0.404,9.31c0,2.163,0,4.25,0,6.274c0,2.023,0.133,4.117,0.404,6.274
		c0,1.354-0.271,3.377-0.81,6.071c-0.271,2.973-0.475,5.939-0.606,8.905c-0.14,2.973-0.342,5.939-0.607,8.905
		c-0.272,1.891-0.475,3.643-0.607,5.262c-0.139,1.619-0.475,3.238-1.012,4.857c-0.545,1.891-0.88,3.782-1.012,5.667
		c-0.14,1.891-0.475,3.915-1.012,6.071c1.347-0.81,2.693-1.619,4.047-2.429c1.348-0.81,2.694-1.48,4.048-2.024
		c1.075-0.538,2.087-1.075,3.036-1.619c0.941-0.538,2.087-0.943,3.44-1.214c0.538-0.266,1.075-0.538,1.619-0.81
		c0.537-0.266,1.075-0.67,1.618-1.214c5.123-4.048,11.195-7.824,18.215-11.334c3.776-2.156,7.552-4.313,11.334-6.476
		c3.775-2.157,7.552-4.181,11.334-6.071c0.809-0.538,1.618-0.873,2.429-1.012c0.81-0.133,1.618-0.468,2.428-1.012
		c0.81-0.538,1.62-0.405,2.429,0.405v2.023c-1.354,3.783-3.377,6.211-6.071,7.286c-0.81,0.272-1.758,0.949-2.833,2.024
		c-1.354,1.354-2.834,2.498-4.453,3.44c-1.618,0.949-3.104,1.96-4.452,3.036c-2.162,1.354-4.187,2.568-6.072,3.643
		c-1.89,1.082-3.781,2.429-5.666,4.048c-0.544,0.544-1.151,1.012-1.821,1.417c-0.677,0.405-1.417,0.879-2.227,1.417
		c-1.892,1.082-3.104,2.163-3.643,3.238c-0.544,1.082-1.214,1.891-2.023,2.429c-0.811,0.544-1.62,1.082-2.429,1.619
		c-1.354,0.809-2.43,1.891-3.239,3.238c-1.618,2.163-3.376,3.782-5.262,4.857c-1.619,1.082-3.104,2.024-4.452,2.833
		c-1.354,0.81-2.7,1.891-4.048,3.238c-0.544,0.543-1.082,0.81-1.619,0.81c-1.619,1.082-3.105,2.429-4.452,4.047
		c-0.81,1.62-1.892,3.106-3.238,4.453c-3.238,3.238-4.996,6.749-5.262,10.523c0,1.62-0.203,3.169-0.607,4.655
		c-0.405,1.479-0.747,2.896-1.012,4.251c-0.544,2.965-1.012,5.729-1.417,8.297c-0.405,2.562-1.012,5.192-1.821,7.894
		c-0.81,2.156-1.486,4.452-2.023,6.881c-0.545,2.428-1.215,4.718-2.024,6.881c-0.544,1.618-0.948,3.168-1.214,4.654
		c-0.272,1.48-0.544,3.036-0.81,4.655c-0.545,4.048-1.486,7.551-2.833,10.523c-0.545,1.075-1.013,2.157-1.417,3.238
		c-0.405,1.075-0.746,2.29-1.013,3.644c-0.543,1.347-1.618,3.1-3.238,5.262c-1.081,1.348-1.758,2.631-2.023,3.846
		c-0.271,1.214-0.677,2.491-1.215,3.845c-0.271,1.075-0.543,2.088-0.81,3.036c-0.271,0.941-0.809,1.954-1.618,3.036
		c-0.271,0.266-0.405,0.537-0.405,0.809c0,0.267-0.14,0.67-0.404,1.215c-0.544,1.619-1.151,3.238-1.822,4.857
		c-0.676,1.618-1.283,3.37-1.821,5.262c-0.543,1.075-1.012,2.024-1.416,2.833c-0.405,0.81-0.879,1.752-1.417,2.833
		c-0.543,1.885-1.215,3.644-2.023,5.263c-0.81,1.618-1.486,3.371-2.024,5.262c-0.543,1.348-1.151,2.765-1.821,4.251
		c-0.677,1.479-1.417,3.035-2.227,4.654c-0.809,1.618-1.688,3.168-2.63,4.654c-0.949,1.48-1.961,3.036-3.036,4.655
		c-1.354,2.156-2.701,4.452-4.048,6.881c-1.354,2.429-2.834,4.718-4.452,6.881c-1.082,1.347-2.094,2.896-3.036,4.655
		c-0.949,1.751-1.961,3.301-3.036,4.654l-0.405,0.405c-2.162,1.619-3.781,3.504-4.856,5.667c-1.081,2.156-2.567,4.18-4.452,6.071
		c-1.354,1.075-2.568,2.833-3.644,5.262c-1.081,2.429-2.7,4.99-4.856,7.69c-1.354,1.62-2.631,3.238-3.846,4.857
		c-1.214,1.619-2.632,3.099-4.25,4.453c-0.544,0.537-1.012,1.074-1.417,1.618c-0.404,0.538-1.012,0.942-1.821,1.215
		c-0.544,0.537-0.81,0.942-0.81,1.214c-2.163,3.505-4.725,6.204-7.69,8.096c-0.544,0.266-0.879,0.537-1.012,0.81
		c-0.14,0.266-0.342,0.537-0.607,0.81c-0.81,1.348-1.758,2.157-2.833,2.429c-1.081,0.537-2.024,1.145-2.834,1.821
		c-0.809,0.671-1.619,1.417-2.429,2.227c-1.353,1.347-2.764,2.429-4.25,3.238c-1.479,0.809-3.036,1.618-4.654,2.428
		c-0.538,0.266-0.943,0.537-1.215,0.811c-0.266,0.265-0.67,0.537-1.215,0.81c-1.618,1.075-3.168,2.023-4.654,2.833
		c-1.48,0.809-3.035,1.48-4.654,2.023c-1.619,0.538-3.238,1.075-4.858,1.619c-1.618,0.537-3.37,0.81-5.261,0.81
		c-0.811,0-1.48,0.133-2.023,0.404c-2.157,0.267-4.313,0.608-6.478,1.013c-2.156,0.404-4.313,0.468-6.477,0.202h-1.618
		c-2.694,1.075-5.8,0.67-9.31-1.215c-2.694-1.353-4.99-2.973-6.881-4.856l-2.43-2.43c-1.618-1.618-2.966-3.307-4.048-5.06
		c-1.075-1.758-2.156-3.711-3.237-5.868c-0.266-0.544-0.537-1.013-0.81-1.416c-0.266-0.405-0.538-0.88-0.81-1.418
		c-1.075-1.891-1.479-3.712-1.215-5.464c0.272-1.759,0.677-3.712,1.215-5.869c0.544-2.163,1.214-4.188,2.023-6.072
		c0.81-1.89,1.354-3.914,1.62-6.071c0-1.618,0.676-3.51,2.023-5.666c1.353-2.163,2.631-4.39,3.846-6.68
		c1.214-2.295,2.498-4.654,3.845-7.083c0.543-1.353,1.283-2.498,2.227-3.44c0.948-0.948,1.688-2.094,2.227-3.44
		c1.353-2.163,2.63-4.389,3.845-6.679c1.215-2.295,2.498-4.521,3.845-6.679c2.164-3.782,4.32-7.285,6.478-10.523
		c2.162-3.238,4.451-6.616,6.881-10.119c2.163-2.973,4.451-6.009,6.881-9.107c2.429-3.106,4.996-6.142,7.689-9.107l10.93-10.929
		c1.353-1.082,2.7-2.7,4.048-4.857c1.619-1.891,3.174-3.782,4.654-5.667c1.48-1.892,3.036-3.781,4.654-5.666
		c2.43-2.973,4.858-5.87,7.286-8.703c2.429-2.833,4.857-5.736,7.286-8.702c3.504-3.51,6.881-7.286,10.119-11.334
		c2.156-2.429,4.453-4.856,6.881-7.286c2.429-2.428,4.857-4.856,7.286-7.286l14.572-14.57c2.156-2.164,4.249-4.188,6.272-6.072
		c2.024-1.891,4.251-3.644,6.68-5.262c0.81-0.544,1.55-1.081,2.227-1.619c0.67-0.537,1.416-1.075,2.226-1.619
		c0.537-0.538,0.811-1.347,0.811-2.429c0.537-3.775,1.213-7.552,2.023-11.333c0.81-3.776,1.479-7.552,2.023-11.334
		c0.538-3.776,1.145-7.488,1.821-11.131c0.67-3.643,1.278-7.35,1.821-11.131c0.538-2.966,1.013-6.071,1.417-9.31
		c0.404-3.238,0.873-6.337,1.416-9.309l-0.403-0.405C584.048,207.04,583.099,208.387,582.023,209.734z M567.048,304.854
		c-0.544,0.538-0.879,0.81-1.012,0.81c-0.14,0-0.342,0.133-0.607,0.405c-1.354,1.618-2.632,3.237-3.845,4.857
		c-1.215,1.618-2.498,3.238-3.847,4.856c-1.618,1.619-2.833,2.967-3.642,4.048c-3.239,4.857-6.749,9.171-10.524,12.952
		c-1.354,1.62-2.7,3.036-4.048,4.25c-1.354,1.215-2.7,2.493-4.048,3.846c-0.81,1.347-1.758,2.492-2.833,3.44
		c-1.081,0.942-2.024,1.954-2.833,3.036c-1.354,1.885-3.036,3.503-5.06,4.857c-2.024,1.347-3.846,2.833-5.465,4.452
		c-1.354,1.348-2.631,2.764-3.846,4.25c-1.214,1.479-2.093,3.169-2.631,5.06c-0.544,0.81-1.354,1.752-2.429,2.834
		c-0.81,1.075-1.688,2.087-2.631,3.035c-0.948,0.942-1.821,2.088-2.631,3.44c-1.354,1.885-2.631,3.644-3.846,5.262
		c-1.214,1.619-2.498,3.238-3.845,4.857c-1.885,2.157-3.776,4.453-5.666,6.881c-1.886,2.429-3.644,4.858-5.263,7.286
		c-4.585,7.014-9.442,13.49-14.572,19.429c-0.537,1.075-0.941,1.752-1.214,2.024c-0.266,1.618-0.739,3.035-1.416,4.25
		c-0.672,1.215-1.418,2.358-2.227,3.439c-0.538,1.075-1.075,2.024-1.619,2.835c-0.537,0.809-1.075,1.751-1.619,2.833
		c-1.075,2.966-2.29,5.666-3.643,8.095c-1.348,2.429-2.695,4.857-4.048,7.286l-0.81,1.619c0.271,0.81,0.271,1.55,0,2.227
		c-0.266,0.67-0.405,1.277-0.405,1.821c-0.266,1.075-0.606,2.023-1.012,2.833s-0.606,1.752-0.606,2.833
		c0,1.886-0.671,3.909-2.024,6.071c-1.075,1.075-0.942,2.024,0.404,2.834c0.271,0.266,0.677,0.942,1.215,2.024
		c0.271,0.537,0.543,1.012,0.81,1.416c0.271,0.405,0.544,0.873,0.809,1.417c1.62,2.694,3.916,3.371,6.882,2.023
		c0.81-0.271,1.619-0.607,2.429-1.012c0.809-0.405,1.619-0.879,2.429-1.417c2.701-1.353,5.129-2.902,7.286-4.654
		c2.162-1.758,4.319-3.713,6.476-5.869c1.62-1.354,3.238-2.771,4.857-4.25c1.619-1.486,3.105-3.175,4.452-5.06
		c1.619-2.163,3.308-4.319,5.06-6.477c1.759-2.163,3.713-4.319,5.869-6.476c0.538-0.545,1.012-1.151,1.417-1.822
		c0.404-0.676,0.873-1.284,1.416-1.821c1.349-1.891,2.632-3.782,3.847-5.667c1.213-1.891,2.491-3.781,3.845-5.667
		c1.347-2.162,2.694-4.117,4.048-5.869c1.347-1.758,2.693-3.713,4.048-5.869c1.347-2.7,2.693-5.262,4.048-7.689
		c1.347-2.43,2.693-4.997,4.047-7.691c1.619-2.973,3.238-5.938,4.857-8.905c1.618-2.972,3.238-5.938,4.857-8.904
		c0.809-0.81,1.479-1.892,2.023-3.238c0.537-1.619,1.215-3.238,2.023-4.857c0.81-1.619,1.62-3.238,2.43-4.856
		c2.156-4.593,4.313-9.247,6.476-13.966c2.157-4.724,4.181-9.379,6.071-13.964c1.348-3.782,2.834-7.627,4.453-11.535
		c1.618-3.916,2.833-7.895,3.643-11.941c0.537-2.162,1.075-4.25,1.619-6.273C565.967,309.105,566.504,307.011,567.048,304.854z"/>
</g>
</svg>
