<?xml version="1.0" encoding="utf-8"?>
<!-- Generator: Adobe Illustrator 16.0.0, SVG Export Plug-In . SVG Version: 6.00 Build 0)  -->
<!DOCTYPE svg PUBLIC "-//W3C//DTD SVG 1.1//EN" "http://www.w3.org/Graphics/SVG/1.1/DTD/svg11.dtd">
<svg version="1.1" id="Ebene_1" xmlns="http://www.w3.org/2000/svg" xmlns:xlink="http://www.w3.org/1999/xlink" x="0px" y="0px"
	 width="56px" height="52px" viewBox="0 0 56 52" enable-background="new 0 0 56 52" xml:space="preserve">
<g>
	<path fill="#FFFFFF" d="M18.11,21.673c0.208-0.084,0.395-0.158,0.562-0.221c0.166-0.064,0.353-0.117,0.562-0.159
		c0.458-0.127,0.905-0.2,1.342-0.222c0.437-0.021,0.884-0.01,1.342,0.031c0.832,0.127,1.581,0.529,2.247,1.205l0.375,0.38
		c0.749,0.55,1.269,1.269,1.561,2.155c0.083,0.297,0.177,0.592,0.281,0.888c0.104,0.296,0.177,0.612,0.218,0.95
		c0,0.297,0,0.593,0,0.889c0,0.295-0.042,0.592-0.125,0.887c-0.084,0.339-0.167,0.666-0.25,0.982
		c-0.084,0.317-0.146,0.645-0.188,0.982c0,0.213-0.062,0.444-0.187,0.697c-0.167,0.424-0.333,0.836-0.5,1.236
		c-0.167,0.402-0.354,0.793-0.562,1.173c-0.125,0.339-0.271,0.655-0.437,0.951c-0.167,0.296-0.333,0.612-0.5,0.95
		c-0.167,0.297-0.323,0.571-0.468,0.824c-0.146,0.254-0.302,0.551-0.468,0.888c-0.167,0.296-0.323,0.593-0.468,0.888
		c-0.146,0.297-0.323,0.592-0.53,0.888c-0.333,0.466-0.624,0.909-0.874,1.331c-0.25,0.423-0.542,0.846-0.874,1.268
		c-0.209,0.339-0.406,0.666-0.593,0.982c-0.187,0.317-0.406,0.623-0.655,0.92c-0.375,0.465-0.749,0.939-1.124,1.426
		c-0.375,0.485-0.791,0.961-1.248,1.426c-0.084,0.085-0.178,0.191-0.281,0.317c-0.104,0.127-0.219,0.254-0.344,0.381
		c-0.375,0.337-0.729,0.697-1.061,1.077c-0.334,0.381-0.729,0.719-1.186,1.015c-0.167,0.084-0.312,0.2-0.437,0.349
		c-0.125,0.147-0.25,0.264-0.375,0.349c-0.666,0.507-1.373,0.654-2.122,0.443c-0.375-0.085-0.687,0-0.936,0.254H9.685v-0.19
		c0.291-0.465,0.166-0.655-0.375-0.57H9.123c-0.167,0.127-0.292,0.084-0.375-0.127c-0.083-0.127-0.135-0.189-0.156-0.189
		c-0.021,0-0.135,0.062-0.343,0.189c0.166-0.212,0.218-0.402,0.156-0.57c-0.062-0.17-0.136-0.339-0.219-0.508
		c-0.084-0.169-0.177-0.316-0.281-0.443c-0.104-0.127-0.198-0.275-0.281-0.443c-0.125-0.127-0.209-0.19-0.25-0.19
		c-0.208,0-0.271-0.127-0.187-0.38c0.125-0.254,0.27-0.444,0.437-0.57c0.25-0.254,0.478-0.551,0.687-0.889
		c0.208-0.38,0.54-0.76,0.999-1.141c0.333-0.338,0.665-0.676,0.999-1.014c0.333-0.339,0.645-0.677,0.937-1.015
		c0.707-0.845,1.394-1.669,2.06-2.472c0.665-0.803,1.331-1.627,1.997-2.473c0.541-0.676,1.061-1.352,1.561-2.029
		c0.499-0.675,0.977-1.395,1.436-2.154c0.208-0.338,0.426-0.697,0.655-1.078c0.228-0.381,0.447-0.761,0.655-1.141
		c0.208-0.422,0.406-0.846,0.593-1.268c0.187-0.422,0.384-0.866,0.593-1.332c0.125-0.338,0.259-0.666,0.406-0.982
		c0.145-0.316,0.259-0.644,0.343-0.982l0.187-0.761c0-0.507-0.25-0.824-0.749-0.951c-0.208-0.042-0.406-0.052-0.593-0.032
		c-0.187,0.022-0.385,0.055-0.593,0.096c-0.334,0.043-0.635,0.074-0.905,0.096c-0.271,0.021-0.572,0.074-0.905,0.158h-0.188
		c-0.292,0.212-0.572,0.349-0.842,0.412c-0.271,0.062-0.552,0.201-0.843,0.412c-0.458,0.338-0.936,0.633-1.436,0.887
		s-0.999,0.551-1.498,0.888c-0.458,0.296-0.905,0.634-1.342,1.015s-0.864,0.782-1.28,1.204c-0.083,0.043-0.187,0.169-0.312,0.38
		c-0.125,0.381-0.24,0.772-0.343,1.174C9.798,31.87,9.705,32.26,9.622,32.64c-0.167,0.72-0.354,1.427-0.562,2.124
		c-0.209,0.697-0.437,1.405-0.687,2.124c-0.167,0.38-0.281,0.76-0.343,1.141c-0.062,0.381-0.136,0.761-0.219,1.141
		c-0.208,0.719-0.385,1.417-0.53,2.092c-0.146,0.678-0.365,1.353-0.655,2.029c-0.209,0.422-0.354,0.845-0.437,1.268
		c-0.084,0.422-0.209,0.865-0.375,1.332c-0.084,0.168-0.156,0.326-0.219,0.475c-0.062,0.147-0.218,0.242-0.468,0.285
		c-0.084,0-0.125,0.042-0.125,0.127c-0.084,0.211-0.198,0.412-0.343,0.602c-0.146,0.191-0.24,0.412-0.281,0.666
		c0,0.127-0.084,0.19-0.25,0.19c-0.125,0-0.24,0-0.344,0c-0.104,0-0.177,0.104-0.218,0.317c-0.042,0.084-0.094,0.095-0.156,0.031
		c-0.062-0.063-0.136-0.074-0.219-0.031c-0.042,0.084-0.053,0.189-0.031,0.316c0.021,0.127,0.01,0.232-0.031,0.316
		c0,0.127-0.062,0.191-0.187,0.191c-0.083,0-0.125-0.043-0.125-0.127c-0.083-0.17-0.145-0.317-0.187-0.443
		c0-0.127-0.062-0.191-0.188-0.191c-0.083,0-0.125,0.084-0.125,0.254c-0.041,0.042-0.062,0.084-0.062,0.127
		c-0.208-0.085-0.333-0.17-0.375-0.254c-0.166-0.169-0.312-0.275-0.437-0.316c-0.25-0.086-0.447-0.223-0.593-0.412
		c-0.146-0.19-0.302-0.392-0.468-0.603c-0.083-0.127-0.125-0.317-0.125-0.57c0.042-0.38,0.115-0.761,0.219-1.142
		c0.104-0.38,0.218-0.76,0.343-1.141c0.499-1.775,0.936-3.55,1.311-5.325c0.125-0.634,0.271-1.257,0.437-1.87
		c0.167-0.611,0.333-1.214,0.499-1.807c0.166-0.549,0.302-1.088,0.406-1.616c0.104-0.528,0.197-1.066,0.281-1.616
		c0.083-0.549,0.197-1.078,0.343-1.585c0.146-0.507,0.302-1.035,0.468-1.585c0.166-0.507,0.312-1.023,0.437-1.553
		c0.125-0.528,0.25-1.066,0.375-1.617c0.375-1.901,0.832-3.718,1.373-5.451c0.125-0.422,0.228-0.845,0.312-1.268
		c0.083-0.422,0.188-0.865,0.312-1.332c0.083-0.295,0.166-0.591,0.25-0.887c0.083-0.295,0.166-0.612,0.25-0.951
		c-0.375,0.254-0.718,0.529-1.03,0.824c-0.312,0.297-0.635,0.613-0.968,0.951c-0.25,0.296-0.499,0.581-0.749,0.855
		c-0.25,0.275-0.521,0.561-0.812,0.855c-0.5,0.593-1.103,0.783-1.81,0.57c-0.041-0.041-0.166-0.062-0.375-0.062
		c-0.874-0.084-1.394-0.486-1.56-1.205C0.531,18.8,0.469,18.716,0.385,18.63c-0.125-0.126-0.208-0.263-0.25-0.412
		c-0.041-0.146-0.083-0.285-0.125-0.411c-0.041-0.212,0.042-0.423,0.25-0.634c0.209-0.211,0.427-0.412,0.656-0.603
		c0.229-0.19,0.447-0.39,0.655-0.603c0.416-0.338,0.842-0.665,1.279-0.982c0.437-0.317,0.884-0.644,1.342-0.982
		c0.707-0.591,1.436-1.173,2.185-1.743c0.749-0.571,1.498-1.151,2.247-1.744c0.208-0.211,0.426-0.412,0.655-0.602
		c0.229-0.19,0.447-0.369,0.655-0.539c0.208-0.127,0.322-0.285,0.343-0.476c0.021-0.19,0.072-0.39,0.156-0.602
		c0.041-0.295,0.103-0.571,0.187-0.824c0.083-0.253,0.25-0.485,0.5-0.697c0.5-0.422,0.977-0.591,1.436-0.507
		c0.208,0.042,0.416,0.063,0.624,0.063c0.208,0,0.416,0.063,0.624,0.19c0.041,0.085,0.146,0.085,0.312,0
		c0.208-0.084,0.426-0.211,0.656-0.38C15,5.974,15.218,5.825,15.427,5.699c0.375-0.254,0.749-0.496,1.124-0.729
		c0.375-0.232,0.77-0.454,1.186-0.666c0.125-0.084,0.26-0.168,0.406-0.254c0.146-0.084,0.322-0.084,0.531,0h0.125
		c0.25-0.126,0.509-0.222,0.78-0.285c0.27-0.063,0.551-0.137,0.843-0.222c0.582-0.168,1.133-0.254,1.654-0.254
		c0.52,0,1.05,0.106,1.592,0.317c0.458,0.212,0.79,0.475,0.999,0.792c0.208,0.317,0.353,0.708,0.437,1.173
		c0.083,0.38,0.134,0.761,0.156,1.141c0.021,0.38-0.011,0.761-0.093,1.141c-0.084,0.339-0.178,0.666-0.281,0.982
		c-0.104,0.317-0.219,0.645-0.344,0.983c-0.25,0.592-0.521,1.172-0.811,1.743c-0.292,0.57-0.542,1.152-0.749,1.743
		c-0.084,0.296-0.188,0.57-0.312,0.824c-0.125,0.253-0.229,0.529-0.312,0.824c-0.083,0.211-0.187,0.413-0.312,0.602
		c-0.125,0.19-0.25,0.392-0.374,0.603c-0.375,0.593-0.729,1.163-1.062,1.712c-0.333,0.549-0.666,1.12-0.999,1.711
		c-0.042,0.043-0.062,0.074-0.062,0.096s-0.021,0.053-0.063,0.095c-0.208,0.296-0.427,0.581-0.655,0.856
		c-0.229,0.275-0.448,0.581-0.655,0.918C18.131,21.546,18.11,21.589,18.11,21.673z M21.793,6.776
		c-0.292,0.085-0.552,0.148-0.78,0.19c-0.229,0.043-0.447,0.085-0.655,0.127c-0.084,0-0.136,0.011-0.156,0.032
		c-0.021,0.021-0.053,0.032-0.094,0.032c-0.333,0.169-0.656,0.317-0.968,0.444c-0.312,0.126-0.614,0.317-0.905,0.57
		c-0.25,0.212-0.5,0.402-0.749,0.57c-0.25,0.169-0.542,0.317-0.874,0.444c-0.084,0.042-0.146,0.085-0.188,0.127
		c-0.042,0.042-0.104,0.085-0.187,0.126c-0.458,0.381-0.687,0.761-0.687,1.141c0.041,0.466,0,0.941-0.125,1.426
		c-0.125,0.487-0.25,0.962-0.375,1.427c-0.125,0.549-0.292,1.163-0.5,1.838c-0.083,0.213-0.146,0.443-0.187,0.697
		c-0.042,0.254-0.125,0.486-0.25,0.697c-0.125,0.213-0.208,0.434-0.25,0.666c-0.042,0.232-0.104,0.455-0.187,0.666
		c-0.084,0.296-0.167,0.581-0.25,0.855c-0.083,0.275-0.167,0.539-0.25,0.793c-0.084,0.253-0.146,0.506-0.187,0.76
		c-0.042,0.254-0.104,0.529-0.188,0.824c0.083-0.084,0.146-0.158,0.188-0.222c0.041-0.063,0.103-0.137,0.187-0.222
		c0.208-0.338,0.426-0.666,0.655-0.982c0.229-0.317,0.489-0.645,0.78-0.982c0.125-0.169,0.25-0.328,0.375-0.477
		c0.125-0.146,0.228-0.326,0.312-0.538c0.416-0.591,0.812-1.183,1.186-1.775c0.375-0.591,0.77-1.183,1.186-1.775
		c0.416-0.591,0.821-1.193,1.217-1.807c0.395-0.612,0.801-1.236,1.217-1.87C20.773,9.438,21.334,8.171,21.793,6.776z"/>
</g>
<g>
	<path fill="#FFFFFF" d="M37.826,12.992c0.133-0.089,0.209-0.179,0.231-0.269c0.022-0.089,0.077-0.178,0.165-0.269
		c0.353-0.76,0.749-1.499,1.189-2.215c0.44-0.715,0.902-1.453,1.389-2.215c0.307-0.447,0.616-0.883,0.925-1.309
		c0.308-0.425,0.638-0.861,0.991-1.309c0.308-0.357,0.605-0.727,0.893-1.107c0.285-0.379,0.605-0.749,0.958-1.107
		c0.483-0.492,1.001-0.906,1.553-1.242c0.55-0.335,1.134-0.638,1.751-0.906c0.44-0.223,0.859-0.413,1.256-0.57
		c0.396-0.156,0.814-0.279,1.256-0.369c1.189-0.269,2.356-0.022,3.503,0.738c0.265,0.224,0.483,0.459,0.661,0.705
		c0.175,0.247,0.373,0.503,0.594,0.772c0.265,0.403,0.451,0.839,0.562,1.309C55.812,4.099,55.911,4.58,56,5.072
		c0,0.448-0.045,0.783-0.132,1.007c-0.089,0.313-0.155,0.627-0.198,0.939c-0.045,0.314-0.111,0.649-0.198,1.007
		c-0.265,0.94-0.706,1.835-1.321,2.685c-0.222,0.358-0.453,0.694-0.694,1.007c-0.243,0.313-0.495,0.627-0.761,0.939
		c-0.264,0.269-0.518,0.548-0.76,0.839c-0.242,0.292-0.495,0.571-0.76,0.839c-0.089,0.045-0.177,0.157-0.264,0.335
		c-0.133,0.225-0.287,0.437-0.463,0.638c-0.177,0.201-0.354,0.414-0.529,0.638c-0.221,0.225-0.43,0.448-0.627,0.671
		c-0.199,0.225-0.408,0.471-0.629,0.738l-0.197,0.201c-0.265,0.225-0.52,0.448-0.76,0.672c-0.243,0.225-0.496,0.447-0.761,0.671
		c-0.485,0.448-0.981,0.884-1.487,1.31s-1.023,0.816-1.553,1.174c-0.441,0.314-0.87,0.604-1.289,0.873
		c-0.418,0.268-0.848,0.537-1.288,0.805c-0.353,0.225-0.705,0.46-1.058,0.705c-0.354,0.246-0.705,0.481-1.057,0.705
		c-0.133,0.134-0.133,0.246,0,0.336c0.175,0.268,0.318,0.548,0.429,0.838c0.11,0.292,0.253,0.594,0.43,0.906
		c0.132,0.27,0.253,0.549,0.364,0.84c0.109,0.291,0.23,0.57,0.363,0.839c0.088,0.224,0.176,0.426,0.264,0.604
		s0.176,0.38,0.265,0.604c0.176,0.269,0.319,0.549,0.43,0.839c0.109,0.292,0.208,0.594,0.298,0.906
		c0.087,0.358,0.208,0.683,0.363,0.974c0.153,0.291,0.297,0.594,0.43,0.906c0.175,0.402,0.352,0.783,0.528,1.141
		c0.175,0.358,0.353,0.738,0.528,1.141c0.043,0.135,0.154,0.336,0.33,0.604c0.176,0.224,0.319,0.47,0.43,0.738
		c0.109,0.269,0.275,0.515,0.496,0.738c0.264,0.358,0.551,0.671,0.859,0.939c0.307,0.269,0.66,0.447,1.057,0.537
		c0.309,0.089,0.596,0.245,0.859,0.47c-0.132,0-0.33-0.045-0.595-0.135c-0.132,0.225-0.144,0.37-0.032,0.438
		c0.109,0.066,0.186,0.167,0.23,0.301c-0.089,0-0.165,0.012-0.23,0.034c-0.066,0.022-0.145,0.034-0.232,0.034
		s-0.132,0.043-0.132,0.134c0,0.089,0.044,0.134,0.132,0.134c0.088,0.045,0.176,0.078,0.265,0.102
		c0.088,0.021,0.198,0.077,0.331,0.167c-0.178,0.089-0.331,0.101-0.463,0.034c-0.133-0.067-0.287-0.102-0.463-0.102
		c0.043,0.09,0.066,0.246,0.066,0.471c-0.265,0-0.508-0.045-0.727-0.135c-0.222-0.09-0.441-0.18-0.662-0.269
		c-0.176-0.09-0.342-0.179-0.495-0.269c-0.155-0.09-0.319-0.179-0.495-0.268c-0.265-0.091-0.508-0.292-0.728-0.604
		c-0.265-0.225-0.54-0.448-0.826-0.671c-0.286-0.225-0.54-0.471-0.76-0.738c-0.309-0.357-0.617-0.727-0.925-1.107
		c-0.309-0.38-0.573-0.795-0.793-1.242c-0.09-0.224-0.199-0.413-0.331-0.57c-0.132-0.156-0.243-0.346-0.33-0.57
		c-0.354-0.627-0.651-1.253-0.892-1.88c-0.243-0.626-0.475-1.275-0.694-1.946C37.98,30.131,37.793,29.56,37.596,29
		c-0.199-0.559-0.408-1.107-0.629-1.644c-0.221-0.582-0.396-1.097-0.528-1.545c0-0.089-0.022-0.156-0.065-0.201
		c0-0.134-0.066-0.178-0.199-0.134c-0.132,0-0.221,0.067-0.264,0.201c-0.045,0.225-0.078,0.414-0.1,0.57
		c-0.022,0.157-0.055,0.347-0.099,0.571c-0.089,0.357-0.155,0.704-0.198,1.04c-0.045,0.335-0.11,0.683-0.199,1.04
		c-0.088,0.582-0.197,1.152-0.33,1.711c-0.132,0.561-0.242,1.131-0.33,1.713c-0.045,0.224-0.1,0.414-0.165,0.57
		c-0.066,0.156-0.099,0.347-0.099,0.57c0,0.09-0.045,0.18-0.133,0.269c-0.221,0.313-0.375,0.649-0.463,1.007
		c-0.088,0.358-0.197,0.716-0.33,1.074v0.268c0,0.225-0.045,0.359-0.133,0.402c-0.131,0.135-0.221,0.293-0.264,0.471
		c-0.045,0.18-0.111,0.358-0.198,0.537c-0.177,0.358-0.31,0.648-0.396,0.872c0,0.044-0.066,0-0.198-0.134
		c-0.045,0.134-0.11,0.245-0.198,0.336c-0.089,0.088-0.177,0.201-0.265,0.335c-0.264,0.358-0.595,0.38-0.991,0.067
		c-0.044,0.178-0.099,0.336-0.165,0.47s-0.078,0.312-0.033,0.536l-0.066,0.135h-0.528c-0.044-0.135-0.11-0.191-0.198-0.168
		c-0.089,0.022-0.177-0.012-0.264-0.101c-0.045-0.09-0.111-0.146-0.199-0.167c-0.089-0.023-0.154-0.057-0.198-0.102
		c-0.132-0.134-0.275-0.246-0.429-0.336s-0.253-0.246-0.297-0.469v-0.135c-0.22-0.135-0.331-0.291-0.331-0.47
		s0.023-0.38,0.066-0.604c0.044-0.491,0.088-0.961,0.132-1.409c0.044-0.446,0.11-0.917,0.198-1.409
		c0.089-0.761,0.188-1.499,0.297-2.215s0.231-1.454,0.363-2.215c0.308-1.655,0.572-3.334,0.794-5.035
		c0.087-0.625,0.175-1.229,0.264-1.812c0.088-0.581,0.176-1.185,0.264-1.812l0.199-2.014l0.396-3.222
		c0.132-0.76,0.264-1.521,0.396-2.282c0.132-0.76,0.264-1.521,0.396-2.282c0.22-0.984,0.406-1.957,0.562-2.92
		c0.153-0.962,0.341-1.913,0.562-2.853c0.176-0.715,0.309-1.432,0.396-2.148c0.043-0.134,0.066-0.312,0.066-0.537
		c0-0.223,0.088-0.559,0.264-1.007c0.133-0.223,0.298-0.379,0.496-0.47c0.198-0.089,0.385-0.178,0.562-0.269h0.131
		c0.133,0.134,0.287,0.191,0.463,0.168c0.176-0.022,0.353-0.01,0.529,0.034c0.264,0.09,0.484,0.179,0.66,0.268
		c0.176,0.18,0.342,0.336,0.496,0.47s0.319,0.292,0.496,0.47c0.528,0.493,0.902,1.119,1.123,1.879
		c0.22,0.627,0.286,1.275,0.198,1.946C38.84,7.198,38.773,7.5,38.686,7.79c-0.089,0.292-0.177,0.594-0.264,0.906v0.403
		c0.175,0.671,0.153,1.387-0.066,2.147c-0.089,0.269-0.177,0.549-0.265,0.839C38.002,12.377,37.914,12.679,37.826,12.992z
		 M37.959,18.898l0.264-0.134c0.572-0.357,1.124-0.738,1.652-1.142c0.529-0.402,1.058-0.806,1.586-1.208
		c0.353-0.357,0.727-0.682,1.123-0.973c0.397-0.291,0.794-0.615,1.19-0.974c0.484-0.403,0.936-0.816,1.354-1.242
		c0.418-0.425,0.869-0.839,1.355-1.242c1.057-0.94,2.092-1.924,3.105-2.954c0.881-0.983,1.719-1.968,2.512-2.953
		c0.439-0.447,0.682-0.94,0.727-1.477c0-0.403-0.154-0.693-0.463-0.873c-0.572-0.224-1.102-0.246-1.586-0.067
		c-0.132,0.09-0.264,0.146-0.396,0.168c-0.132,0.023-0.242,0.079-0.33,0.167c-0.486,0.225-0.948,0.448-1.389,0.671
		c-0.44,0.225-0.858,0.515-1.255,0.873c-0.177,0.179-0.331,0.313-0.463,0.403c-0.353,0.179-0.65,0.403-0.892,0.671
		c-0.243,0.268-0.475,0.56-0.694,0.873c-0.089,0.09-0.155,0.19-0.198,0.302c-0.045,0.112-0.111,0.213-0.198,0.302
		c-0.485,0.582-0.948,1.174-1.388,1.778c-0.441,0.604-0.883,1.22-1.322,1.846c-0.132,0.224-0.254,0.448-0.363,0.671
		c-0.11,0.225-0.23,0.448-0.363,0.671c-0.177,0.269-0.354,0.526-0.529,0.772c-0.176,0.247-0.374,0.503-0.594,0.771
		c-0.265,0.314-0.496,0.649-0.694,1.008c-0.198,0.357-0.386,0.716-0.562,1.073c-0.089,0.225-0.188,0.426-0.297,0.604
		c-0.111,0.179-0.211,0.358-0.299,0.537s-0.188,0.347-0.297,0.503C38.146,18.485,38.047,18.675,37.959,18.898z"/>
</g>
</svg>
